<?xml version="1.0" standalone="no"?>
<!DOCTYPE svg PUBLIC "-//W3C//DTD SVG 1.1//EN" "http://www.w3.org/Graphics/SVG/1.1/DTD/svg11.dtd" >
<svg xmlns="http://www.w3.org/2000/svg">
<metadata>
<json>
<![CDATA[
{
	"fontFamily": "theme-icons",
	"description": "Font generated by IcoMoon.",
	"majorVersion": 1,
	"minorVersion": 0,
	"version": "Version 1.0",
	"fontId": "theme-icons",
	"psName": "theme-icons",
	"subFamily": "Regular",
	"fullName": "theme-icons"
}
]]>
</json>
</metadata>
<defs>
<font id="theme-icons" horiz-adv-x="1024">
<font-face units-per-em="1024" ascent="960" descent="-64" />
<missing-glyph horiz-adv-x="1024" />
<glyph unicode="&#x20;" horiz-adv-x="512" d="" />
<glyph unicode="&#xe900;" glyph-name="close" data-tags="close" d="M810 686l-238-238 238-238-60-60-238 238-238-238-60 60 238 238-238 238 60 60 238-238 238 238z" />
<glyph unicode="&#xe901;" glyph-name="radio_button_unchecked" data-tags="radio_button_unchecked" d="M512 106c188 0 342 154 342 342s-154 342-342 342-342-154-342-342 154-342 342-342zM512 874c236 0 426-190 426-426s-190-426-426-426-426 190-426 426 190 426 426 426z" />
<glyph unicode="&#xe902;" glyph-name="check_box" data-tags="check_box" d="M426 234l384 384-60 62-324-324-152 152-60-60zM810 832c48 0 86-40 86-86v-596c0-46-38-86-86-86h-596c-48 0-86 40-86 86v596c0 46 38 86 86 86h596z" />
<glyph unicode="&#xe903;" glyph-name="check_box_outline_blank" data-tags="check_box_outline_blank" d="M810 832c46 0 86-40 86-86v-596c0-46-40-86-86-86h-596c-46 0-86 40-86 86v596c0 46 40 86 86 86h596zM810 746h-596v-596h596v596z" />
<glyph unicode="&#xe904;" glyph-name="radio_button_checked" data-tags="radio_button_checked" d="M512 106c188 0 342 154 342 342s-154 342-342 342-342-154-342-342 154-342 342-342zM512 874c236 0 426-190 426-426s-190-426-426-426-426 190-426 426 190 426 426 426zM512 662c118 0 214-96 214-214s-96-214-214-214-214 96-214 214 96 214 214 214z" />
<glyph unicode="&#xe906;" glyph-name="home" data-tags="home" d="M1017.395 337.152l-452.045 499.61c-14.029 15.514-32.973 24.064-53.35 24.064 0 0 0 0 0 0-20.326 0-39.27-8.55-53.35-24.064l-452.045-499.61c-9.472-10.496-8.653-26.675 1.792-36.147 4.915-4.454 11.059-6.605 17.152-6.605 6.963 0 13.926 2.816 18.995 8.448l109.005 120.474v-410.522c0-42.342 34.458-76.8 76.8-76.8h563.2c42.342 0 76.8 34.458 76.8 76.8v410.522l109.005-120.474c9.472-10.496 25.651-11.315 36.147-1.792s11.315 25.651 1.792 36.147zM614.4-12.8h-204.8v230.4c0 14.131 11.469 25.6 25.6 25.6h153.6c14.131 0 25.6-11.469 25.6-25.6v-230.4zM819.2 12.8c0-14.131-11.469-25.6-25.6-25.6h-128v230.4c0 42.342-34.458 76.8-76.8 76.8h-153.6c-42.342 0-76.8-34.458-76.8-76.8v-230.4h-128c-14.131 0-25.6 11.469-25.6 25.6v467.098l291.84 322.56c4.198 4.659 9.677 7.219 15.36 7.219s11.162-2.56 15.36-7.219l291.84-322.56v-467.098z" />
<glyph unicode="&#xe90e;" glyph-name="pencil" data-tags="pencil" d="M978.125 914.125c-28.774 28.774-67.021 44.595-107.725 44.595s-78.95-15.821-107.725-44.595l-652.8-652.8c-2.662-2.662-4.659-5.837-5.939-9.37l-102.4-281.6c-3.379-9.37-1.075-19.814 5.939-26.829 4.864-4.864 11.418-7.475 18.125-7.475 2.918 0 5.888 0.512 8.755 1.536l281.6 102.4c3.533 1.28 6.707 3.328 9.37 5.939l652.8 652.8c28.774 28.774 44.595 67.021 44.595 107.725s-15.821 78.95-44.595 107.725zM293.12 86.118l-224.717-81.715 81.715 224.717 566.682 566.682 143.002-143.002-566.682-566.682zM941.875 734.925l-45.875-45.875-143.002 143.002 45.875 45.875c19.098 19.098 44.493 29.594 71.475 29.594s52.378-10.496 71.475-29.594c19.098-19.098 29.594-44.493 29.594-71.475s-10.496-52.378-29.594-71.475z" />
<glyph unicode="&#xe916;" glyph-name="arrows-1_download" data-tags="arrows-1_download" d="M576 448v448h-128v-448h-153.6l217.6-256 217.6 256zM960-64h-896c-38.4 0-64 25.6-64 64v576c0 38.4 25.6 64 64 64h192v-128h-128v-448h768v448h-128v128h192c38.4 0 64-25.6 64-64v-576c0-38.4-25.6-64-64-64z" />
<glyph unicode="&#xe926;" glyph-name="arrows-1_minimal-down" data-tags="arrows-1_minimal-down" d="M512 153.6l-492.8 492.8 89.6 96 403.2-403.2 403.2 403.2 89.6-96z" />
<glyph unicode="&#xe927;" glyph-name="arrows-1_minimal-left" data-tags="arrows-1_minimal-left" d="M710.4-44.8l-492.8 492.8 492.8 492.8 96-89.6-403.2-403.2 403.2-403.2z" />
<glyph unicode="&#xe928;" glyph-name="arrows-1_minimal-right" data-tags="arrows-1_minimal-right" d="M313.6-44.8l-96 89.6 403.2 403.2-403.2 403.2 96 89.6 492.8-492.8z" />
<glyph unicode="&#xe929;" glyph-name="arrows-1_minimal-up" data-tags="arrows-1_minimal-up" d="M915.2 153.6l-403.2 403.2-403.2-403.2-89.6 96 492.8 492.8 492.8-492.8z" />
<glyph unicode="&#xe92d;" glyph-name="arrows-1_refresh-69" data-tags="arrows-1_refresh-69" d="M544 768c76.8 0 140.8-25.6 204.8-64h-172.8v-128h384v384h-128v-160c-83.2 64-179.2 96-288 96-249.6 0-460.8-192-480-441.6l128-12.8c12.8 185.6 166.4 326.4 352 326.4zM480 128c-76.8 0-140.8 25.6-204.8 64h172.8v128h-384v-384h128v160c83.2-64 179.2-96 288-96 249.6 0 460.8 192 480 441.6l-128 12.8c-12.8-185.6-166.4-326.4-352-326.4z" />
<glyph unicode="&#xe939;" glyph-name="arrows-1_simple-right" data-tags="arrows-1_simple-right" d="M448 640h-384c-38.4 0-64-25.6-64-64v-256c0-38.4 25.6-64 64-64h384v-256l576 448-576 448v-256z" />
<glyph unicode="&#xe94b;" glyph-name="arrows-1_tail-triangle-left" data-tags="arrows-1_tail-triangle-left" d="M448 384h512c38.4 0 64 25.6 64 64v0c0 38.4-25.6 64-64 64h-512v320l-448-384 448-384v320z" />
<glyph unicode="&#xe94c;" glyph-name="arrows-1_tail-triangle-right" data-tags="arrows-1_tail-triangle-right" d="M576 512h-512c-38.4 0-64-25.6-64-64v0c0-38.4 25.6-64 64-64h512v-320l448 384-448 384v-320z" />
<glyph unicode="&#xe982;" glyph-name="trash2" data-tags="trash2" d="M793.6 857.6h-179.2v25.6c0 42.342-34.458 76.8-76.8 76.8h-102.4c-42.342 0-76.8-34.458-76.8-76.8v-25.6h-179.2c-42.342 0-76.8-34.458-76.8-76.8v-51.2c0-33.382 21.402-61.85 51.2-72.397v-644.403c0-42.342 34.458-76.8 76.8-76.8h512c42.342 0 76.8 34.458 76.8 76.8v644.403c29.798 10.547 51.2 39.014 51.2 72.397v51.2c0 42.342-34.458 76.8-76.8 76.8zM409.6 883.2c0 14.131 11.469 25.6 25.6 25.6h102.4c14.131 0 25.6-11.469 25.6-25.6v-25.6h-153.6v25.6zM742.4-12.8h-512c-14.131 0-25.6 11.469-25.6 25.6v640h563.2v-640c0-14.131-11.469-25.6-25.6-25.6zM819.2 729.6c0-14.131-11.469-25.6-25.6-25.6h-614.4c-14.131 0-25.6 11.469-25.6 25.6v51.2c0 14.131 11.469 25.6 25.6 25.6h614.4c14.131 0 25.6-11.469 25.6-25.6v-51.2zM640 601.6c-14.131 0-25.6-11.469-25.6-25.6v-512c0-14.131 11.469-25.6 25.6-25.6s25.6 11.469 25.6 25.6v512c0 14.131-11.469 25.6-25.6 25.6zM486.4 601.6c-14.131 0-25.6-11.469-25.6-25.6v-512c0-14.131 11.469-25.6 25.6-25.6s25.6 11.469 25.6 25.6v512c0 14.131-11.469 25.6-25.6 25.6zM332.8 601.6c-14.131 0-25.6-11.469-25.6-25.6v-512c0-14.131 11.469-25.6 25.6-25.6s25.6 11.469 25.6 25.6v512c0 14.131-11.469 25.6-25.6 25.6z" />
<glyph unicode="&#xe98e;" glyph-name="heart" data-tags="heart" d="M486.4-12.8c-4.301 0-8.55 1.075-12.442 3.226-4.813 2.662-119.091 66.611-235.11 171.366-68.659 61.952-123.443 125.338-162.97 188.416-50.381 80.435-75.878 160.717-75.878 238.592 0 148.224 120.576 268.8 268.8 268.8 50.176 0 103.475-18.79 150.067-52.941 27.238-19.968 50.432-44.032 67.533-69.581 17.101 25.549 40.294 49.613 67.533 69.581 46.592 34.15 99.891 52.941 150.067 52.941 148.224 0 268.8-120.576 268.8-268.8 0-77.875-25.549-158.157-75.878-238.592-39.475-63.078-94.31-126.464-162.918-188.416-116.019-104.755-230.298-168.704-235.11-171.366-3.891-2.15-8.141-3.226-12.442-3.226zM268.8 806.4c-119.962 0-217.6-97.638-217.6-217.6 0-155.648 120.32-297.062 221.235-388.352 90.112-81.51 181.453-138.65 213.965-158.054 32.512 19.405 123.853 76.544 213.965 158.054 100.915 91.238 221.235 232.704 221.235 388.352 0 119.962-97.638 217.6-217.6 217.6-87.194 0-171.878-71.731-193.331-136.090-3.482-10.445-13.261-17.51-24.269-17.51s-20.787 7.066-24.269 17.51c-21.453 64.358-106.138 136.090-193.331 136.090z" />
<glyph unicode="&#xe98f;" glyph-name="star" data-tags="star" d="M793.6-12.8c-4.198 0-8.397 1.024-12.237 3.123l-269.363 146.893-269.363-146.893c-8.602-4.71-19.098-4.045-27.085 1.638s-12.032 15.411-10.394 25.088l49.050 294.195-195.482 195.482c-6.758 6.758-9.216 16.794-6.298 25.907s10.701 15.872 20.173 17.459l294.349 49.050 122.163 244.326c4.352 8.653 13.21 14.131 22.886 14.131s18.586-5.478 22.886-14.131l122.163-244.326 294.349-49.050c9.472-1.587 17.254-8.294 20.173-17.459s0.512-19.149-6.298-25.907l-195.482-195.482 49.050-294.195c1.587-9.677-2.458-19.405-10.394-25.088-4.403-3.123-9.626-4.762-14.848-4.762zM512 192c4.198 0 8.448-1.024 12.237-3.123l235.469-128.41-42.547 255.334c-1.382 8.141 1.28 16.486 7.168 22.323l169.626 169.626-258.15 43.008c-8.090 1.331-15.002 6.502-18.688 13.824l-105.114 210.227-105.114-210.227c-3.686-7.322-10.598-12.442-18.688-13.824l-258.15-43.008 169.626-169.626c5.837-5.837 8.499-14.131 7.168-22.323l-42.547-255.334 235.469 128.41c3.84 2.099 8.038 3.123 12.237 3.123z" />
<glyph unicode="&#xe997;" glyph-name="envelope" data-tags="envelope" d="M912 732.8h-819.2c-42.342 0-76.8-34.458-76.8-76.8v-460.8c0-42.342 34.458-76.8 76.8-76.8h819.2c42.342 0 76.8 34.458 76.8 76.8v460.8c0 42.342-34.458 76.8-76.8 76.8zM912 681.6c1.536 0 2.97-0.154 4.454-0.41l-385.638-257.075c-14.848-9.882-41.933-9.882-56.781 0l-385.638 257.075c1.434 0.256 2.918 0.41 4.454 0.41h819.2zM912 169.6h-819.2c-14.131 0-25.6 11.469-25.6 25.6v438.579l378.419-252.262c15.923-10.598 36.352-15.923 56.781-15.923s40.858 5.325 56.781 15.923l378.419 252.262v-438.579c0-14.131-11.469-25.6-25.6-25.6z" />
<glyph unicode="&#xe9b1;" glyph-name="arrows-e_circle-e-right-01" data-tags="arrows-e_circle-e-right-01" d="M384 256l256 192-256 192zM512 960c-281.6 0-512-230.4-512-512s230.4-512 512-512 512 230.4 512 512-230.4 512-512 512zM512 64c-211.2 0-384 172.8-384 384s172.8 384 384 384 384-172.8 384-384-172.8-384-384-384z" />
<glyph unicode="&#xe9b2;" glyph-name="arrows-e_circle-e-right-09" data-tags="arrows-e_circle-e-right-09" d="M448 230.4l-89.6 89.6 128 128-128 128 89.6 89.6 217.6-217.6zM512 960c-281.6 0-512-230.4-512-512s230.4-512 512-512 512 230.4 512 512-230.4 512-512 512zM512 64c-211.2 0-384 172.8-384 384s172.8 384 384 384 384-172.8 384-384-172.8-384-384-384z" />
<glyph unicode="&#xe9ef;" glyph-name="repeat" data-tags="repeat" d="M888.525 798.925l-153.6 153.6c-9.984 9.984-26.214 9.984-36.198 0s-9.984-26.214 0-36.198l109.875-109.875h-680.602c-42.342 0-76.8-34.458-76.8-76.8v-460.8c0-14.131 11.469-25.6 25.6-25.6s25.6 11.469 25.6 25.6v460.8c0 14.131 11.469 25.6 25.6 25.6h680.602l-109.875-109.875c-9.984-9.984-9.984-26.214 0-36.198 5.018-5.018 11.571-7.475 18.125-7.475s13.107 2.509 18.125 7.475l153.6 153.6c9.984 9.984 9.984 26.214 0 36.198zM896 652.8c-14.131 0-25.6-11.469-25.6-25.6v-460.8c0-14.131-11.469-25.6-25.6-25.6h-680.602l109.875 109.875c9.984 9.984 9.984 26.214 0 36.198s-26.214 9.984-36.198 0l-153.6-153.6c-9.984-9.984-9.984-26.214 0-36.198l153.6-153.6c5.018-5.018 11.571-7.475 18.125-7.475s13.107 2.509 18.125 7.475c9.984 9.984 9.984 26.214 0 36.198l-109.875 109.875h680.602c42.342 0 76.8 34.458 76.8 76.8v460.8c0 14.131-11.469 25.6-25.6 25.6z" />
<glyph unicode="&#xea04;" glyph-name="users_multiple-19" data-tags="users_multiple-19" d="M652.8 230.4l-172.8 128c57.6 44.8 96 108.8 96 185.6v51.2c0 121.6-89.6 230.4-211.2 236.8-128 6.4-236.8-96-236.8-224v-64c0-76.8 38.4-140.8 96-185.6l-172.8-134.4c-32-25.6-51.2-64-51.2-102.4v-121.6c0-38.4 25.6-64 64-64h576c38.4 0 64 25.6 64 64v128c0 38.4-19.2 76.8-51.2 102.4zM966.4 550.4l-115.2 76.8c25.6 25.6 44.8 64 44.8 108.8v57.6c0 76.8-57.6 153.6-134.4 166.4s-140.8-32-172.8-89.6c70.4-64 115.2-153.6 115.2-256v-64c0-57.6-12.8-115.2-38.4-160 0 0 76.8-57.6 76.8-64h217.6c38.4 0 64 25.6 64 64v51.2c0 44.8-19.2 83.2-57.6 108.8z" />
<glyph unicode="&#xea0a;" glyph-name="users_single-body" data-tags="users_single-body" d="M787.2 352c-76.8 25.6-121.6 51.2-134.4 76.8 70.4 44.8 115.2 121.6 115.2 211.2v64c0 140.8-115.2 256-256 256s-256-115.2-256-256v-64c0-89.6 44.8-166.4 115.2-217.6-19.2-19.2-64-51.2-134.4-76.8-102.4-32-172.8-128-172.8-236.8v-172.8h896v172.8c0 108.8-70.4 204.8-172.8 243.2zM384 704c0 70.4 57.6 128 128 128s128-57.6 128-128v-64c0-70.4-57.6-128-128-128s-128 57.6-128 128v64zM832 64h-640v44.8c0 51.2 32 102.4 83.2 115.2 115.2 38.4 192 89.6 224 153.6h25.6c32-64 102.4-115.2 224-153.6 51.2-19.2 83.2-64 83.2-115.2v-44.8z" />
<glyph unicode="&#xea18;" glyph-name="ui-1_bold-remove" data-tags="ui-1_bold-remove" d="M783.552 900.544l-271.552-271.552-271.552 271.552-180.992-180.992 271.552-271.552-271.552-271.552 180.992-180.992 271.552 271.552 271.552-271.552 180.992 180.992-271.552 271.552 271.552 271.552z" />
<glyph unicode="&#xea1f;" glyph-name="user" data-tags="user" d="M486.4 396.8c-155.29 0-281.6 126.31-281.6 281.6s126.31 281.6 281.6 281.6 281.6-126.31 281.6-281.6-126.31-281.6-281.6-281.6zM486.4 908.8c-127.027 0-230.4-103.373-230.4-230.4s103.373-230.4 230.4-230.4c127.027 0 230.4 103.373 230.4 230.4s-103.373 230.4-230.4 230.4zM896-64h-819.2c-42.342 0-76.8 34.458-76.8 76.8 0 3.482 0.717 86.272 62.72 168.96 36.096 48.128 85.504 86.374 146.893 113.613 74.957 33.331 168.090 50.227 276.787 50.227s201.83-16.896 276.787-50.227c61.389-27.29 110.797-65.485 146.893-113.613 62.003-82.688 62.72-165.478 62.72-168.96 0-42.342-34.458-76.8-76.8-76.8zM486.4 294.4c-178.534 0-310.272-48.794-380.979-141.107-52.992-69.171-54.17-139.878-54.221-140.595 0-14.029 11.469-25.498 25.6-25.498h819.2c14.131 0 25.6 11.469 25.6 25.6 0 0.614-1.178 71.322-54.221 140.493-70.758 92.314-202.496 141.107-380.979 141.107z" />
<glyph unicode="&#xea22;" glyph-name="ui-1_check-circle-08" data-tags="ui-1_check-circle-08" d="M512 960c-282.752 0-512-229.248-512-512s229.248-512 512-512 512 229.248 512 512-229.248 512-512 512zM448 229.504l-218.496 218.496 90.496 90.496 128-128 256 256 90.496-90.496-346.496-346.496z" />
<glyph unicode="&#xea23;" glyph-name="user-plus" data-tags="user-plus" d="M486.4 396.8c-155.29 0-281.6 126.31-281.6 281.6s126.31 281.6 281.6 281.6 281.6-126.31 281.6-281.6-126.31-281.6-281.6-281.6zM486.4 908.8c-127.027 0-230.4-103.373-230.4-230.4s103.373-230.4 230.4-230.4c127.027 0 230.4 103.373 230.4 230.4s-103.373 230.4-230.4 230.4zM588.8-64h-512c-42.342 0-76.8 34.458-76.8 76.8 0 3.482 0.717 86.272 62.72 168.96 36.096 48.128 85.504 86.374 146.893 113.613 74.957 33.331 168.090 50.227 276.787 50.227 17.971 0 35.738-0.563 52.787-1.587 14.131-0.87 24.832-13.056 23.962-27.136s-13.056-24.883-27.136-23.962c-16.026 0.973-32.717 1.485-49.613 1.485-178.534 0-310.272-48.794-380.979-141.107-52.992-69.171-54.17-139.878-54.221-140.595 0-14.029 11.469-25.498 25.6-25.498h512c14.131 0 25.6-11.469 25.6-25.6s-11.469-25.6-25.6-25.6zM793.6-64c-127.027 0-230.4 103.373-230.4 230.4s103.373 230.4 230.4 230.4 230.4-103.373 230.4-230.4-103.373-230.4-230.4-230.4zM793.6 345.6c-98.816 0-179.2-80.384-179.2-179.2s80.384-179.2 179.2-179.2 179.2 80.384 179.2 179.2-80.384 179.2-179.2 179.2zM896 192h-76.8v76.8c0 14.131-11.469 25.6-25.6 25.6s-25.6-11.469-25.6-25.6v-76.8h-76.8c-14.131 0-25.6-11.469-25.6-25.6s11.469-25.6 25.6-25.6h76.8v-76.8c0-14.131 11.469-25.6 25.6-25.6s25.6 11.469 25.6 25.6v76.8h76.8c14.131 0 25.6 11.469 25.6 25.6s-11.469 25.6-25.6 25.6z" />
<glyph unicode="&#xea24;" glyph-name="user-minus" data-tags="user-minus" d="M486.4 396.8c-155.29 0-281.6 126.31-281.6 281.6s126.31 281.6 281.6 281.6 281.6-126.31 281.6-281.6-126.31-281.6-281.6-281.6zM486.4 908.8c-127.027 0-230.4-103.373-230.4-230.4s103.373-230.4 230.4-230.4c127.027 0 230.4 103.373 230.4 230.4s-103.373 230.4-230.4 230.4zM588.8-64h-512c-42.342 0-76.8 34.458-76.8 76.8 0 3.482 0.717 86.272 62.72 168.96 36.096 48.128 85.504 86.374 146.893 113.613 74.957 33.331 168.090 50.227 276.787 50.227 17.971 0 35.738-0.563 52.787-1.587 14.131-0.87 24.832-13.056 23.962-27.136s-13.056-24.883-27.136-23.962c-16.026 0.973-32.717 1.485-49.613 1.485-178.534 0-310.272-48.794-380.979-141.107-52.992-69.171-54.17-139.878-54.221-140.595 0-14.029 11.469-25.498 25.6-25.498h512c14.131 0 25.6-11.469 25.6-25.6s-11.469-25.6-25.6-25.6zM793.6-64c-127.027 0-230.4 103.373-230.4 230.4s103.373 230.4 230.4 230.4 230.4-103.373 230.4-230.4-103.373-230.4-230.4-230.4zM793.6 345.6c-98.816 0-179.2-80.384-179.2-179.2s80.384-179.2 179.2-179.2 179.2 80.384 179.2 179.2-80.384 179.2-179.2 179.2zM896 140.8h-204.8c-14.131 0-25.6 11.469-25.6 25.6s11.469 25.6 25.6 25.6h204.8c14.131 0 25.6-11.469 25.6-25.6s-11.469-25.6-25.6-25.6z" />
<glyph unicode="&#xea25;" glyph-name="ui-1_check" data-tags="ui-1_check" d="M914.752 813.248l-594.752-594.752-210.752 210.752c-25.024 25.024-65.472 25.024-90.496 0s-25.024-65.472 0-90.496l256-256c12.48-12.48 28.864-18.752 45.248-18.752s32.768 6.272 45.248 18.752l640 640c25.024 25.024 25.024 65.472 0 90.496s-65.472 25.024-90.496 0z" />
<glyph unicode="&#xea39;" glyph-name="ui-1_email-83" data-tags="ui-1_email-83" d="M960 896h-896c-38.4 0-64-25.6-64-64v-89.6l512-288 512 281.6v96c0 38.4-25.6 64-64 64zM480 326.4l-480 268.8v-531.2c0-38.4 25.6-64 64-64h896c38.4 0 64 25.6 64 64v531.2l-480-268.8c-17.92-8.96-46.080-8.96-64 0z" />
<glyph unicode="&#xea3a;" glyph-name="ui-1_email-84" data-tags="ui-1_email-84" d="M960 896h-896c-35.328 0-64-28.608-64-64v-768c0-35.392 28.672-64 64-64h896c35.328 0 64 28.608 64 64v768c0 35.392-28.672 64-64 64zM896 128h-768v401.728l352.256-201.28c19.712-11.264 43.84-11.264 63.488 0l352.256 201.28v-401.728zM896 677.12l-384-219.456-384 219.456v90.88h768v-90.88z" />
<glyph unicode="&#xea40;" glyph-name="ui-1_home-51" data-tags="ui-1_home-51" d="M704-64h128c35.328 0 64 28.672 64 64v448h64c18.048 0 35.968 7.552 48.576 22.336 22.976 26.816 19.904 67.2-6.912 90.176l-448 384c-24 20.544-59.328 20.544-83.328 0l-448-384c-26.816-22.976-29.952-63.296-6.912-90.112 12.608-14.784 30.528-22.4 48.576-22.4 14.72 0 64 0 64 0v-448c0-35.328 28.672-64 64-64h128c35.328 0 64 28.672 64 64v192h256v-192c0-35.328 28.672-64 64-64z" />
<glyph unicode="&#xea4d;" glyph-name="bag2" data-tags="bag2" d="M1023.846-35.226l-51.098 715.469c-0.973 13.414-12.083 23.757-25.549 23.757h-117.402l-197.325 197.325c-9.984 9.984-26.214 9.984-36.198 0l-25.6-25.6c-9.984-9.984-9.984-26.214 0-36.198s26.214-9.984 36.198 0l7.475 7.475 143.002-143.002h-81.203l-222.925 222.925c-9.984 9.984-26.214 9.984-36.198 0l-222.925-222.925h-117.402c-13.414 0-24.576-10.394-25.549-23.757l-51.2-716.8c-0.512-7.066 1.946-14.080 6.81-19.251s11.622-8.141 18.739-8.141h972.8c0 0 0 0 0.051 0 14.131 0 25.6 11.469 25.6 25.6 0 1.075-0.051 2.099-0.205 3.174zM435.2 872.602l168.602-168.602h-337.203l168.602 168.602zM53.094-12.8l47.565 665.6h104.141c0 0 0 0 0 0h718.541l47.565-665.6h-917.811zM512 243.2c-56.474 0-108.902 30.515-147.661 85.914-36.813 52.634-57.139 122.112-57.139 195.686 0 14.131 11.469 25.6 25.6 25.6s25.6-11.469 25.6-25.6c0-63.181 16.998-122.266 47.872-166.349 28.928-41.318 66.458-64.051 105.728-64.051s76.8 22.733 105.728 64.051c30.874 44.083 47.872 103.168 47.872 166.349 0 14.131 11.469 25.6 25.6 25.6s25.6-11.469 25.6-25.6c0-73.574-20.275-143.104-57.139-195.686-38.758-55.398-91.238-85.914-147.661-85.914z" />
<glyph unicode="&#xea5c;" glyph-name="ui-1_simple-remove" data-tags="ui-1_simple-remove" d="M941.248 877.248c-25.024 25.024-65.472 25.024-90.496 0l-338.752-338.752-338.752 338.752c-25.024 25.024-65.472 25.024-90.496 0s-25.024-65.472 0-90.496l338.752-338.752-338.752-338.752c-25.024-25.024-25.024-65.472 0-90.496 12.48-12.48 28.864-18.752 45.248-18.752s32.768 6.272 45.248 18.752l338.752 338.752 338.752-338.752c12.48-12.48 28.864-18.752 45.248-18.752s32.768 6.272 45.248 18.752c25.024 25.024 25.024 65.472 0 90.496l-338.752 338.752 338.752 338.752c25.024 25.024 25.024 65.472 0 90.496z" />
<glyph unicode="&#xea5d;" glyph-name="ui-1_trash-simple" data-tags="ui-1_trash-simple" d="M320 512h128v-384h-128v384zM576 512h128v-384h-128v384zM768 896c0 35.328-28.608 64-64 64h-384c-35.392 0-64-28.672-64-64v-128h-256v-128h64v-640c0-35.328 28.608-64 64-64h768c35.392 0 64 28.672 64 64v640h64v128h-256v128zM384 832h256v-64h-256v64zM832 640v-576h-640v576h640z" />
<glyph unicode="&#xea66;" glyph-name="ui-1_zoom" data-tags="ui-1_zoom" d="M814.144 236.352c56.832 75.648 91.008 169.344 91.008 271.040 0 249.6-203.008 452.608-452.608 452.608s-452.544-203.008-452.544-452.544c0-249.536 203.008-452.608 452.544-452.608 101.76 0 195.392 34.176 271.040 91.008l191.104-191.104c12.544-12.48 28.928-18.752 45.312-18.752s32.768 6.272 45.248 18.752c25.024 25.024 25.024 65.472 0 90.496l-191.104 191.104zM452.544 182.848c-178.944 0-324.544 145.6-324.544 324.608s145.6 324.544 324.544 324.544 324.544-145.6 324.544-324.544-145.6-324.608-324.544-324.608z" />
<glyph unicode="&#xea6a;" glyph-name="telephone" data-tags="telephone" d="M819.2-64c-90.675 0-187.136 25.702-286.72 76.39-91.802 46.746-182.477 113.664-262.246 193.536s-146.586 170.65-193.28 262.502c-50.586 99.635-76.288 196.096-76.288 286.771 0 58.778 54.784 115.558 78.285 137.216 33.843 31.181 87.091 67.584 125.798 67.584 19.251 0 41.779-12.595 71.014-39.629 21.76-20.173 46.285-47.514 70.81-79.053 14.797-19.046 88.576-116.275 88.576-162.918 0-38.246-43.264-64.87-89.037-92.979-17.715-10.854-35.994-22.118-49.203-32.717-14.131-11.315-16.64-17.306-17.050-18.637 48.589-121.139 197.12-269.67 318.208-318.208 1.075 0.358 7.066 2.714 18.586 17.050 10.598 13.21 21.862 31.539 32.717 49.203 28.16 45.773 54.733 89.037 92.979 89.037 46.643 0 143.872-73.779 162.918-88.576 31.539-24.525 58.88-49.050 79.053-70.81 27.034-29.184 39.629-51.763 39.629-71.014 0-38.707-36.403-92.109-67.533-126.106-21.709-23.654-78.49-78.694-137.267-78.694zM204.493 908.8c-13.722-0.256-50.637-17.050-90.778-54.016-38.093-35.123-61.798-73.267-61.798-99.584 0-344.525 423.117-768 767.283-768 26.266 0 64.41 23.808 99.533 62.106 37.018 40.346 53.811 77.414 54.067 91.187-1.638 9.728-28.57 47.565-102.246 104.294-63.334 48.742-114.688 74.906-127.898 75.213-0.922-0.256-6.656-2.458-18.278-17.203-10.086-12.851-20.89-30.413-31.386-47.411-28.672-46.643-55.757-90.726-95.13-90.726-6.349 0-12.595 1.229-18.586 3.635-134.4 53.76-293.325 212.685-347.085 347.085-6.451 16.128-7.475 41.421 24.269 70.195 16.896 15.309 40.243 29.645 62.874 43.571 16.998 10.445 34.611 21.248 47.411 31.386 14.746 11.622 16.947 17.357 17.203 18.278-0.358 13.21-26.47 64.563-75.213 127.898-56.73 73.677-94.566 100.557-104.294 102.246z" />
<glyph unicode="&#xea7a;" glyph-name="ui-2_chat-content" data-tags="ui-2_chat-content" d="M960 960h-896c-35.392 0-64-28.608-64-64v-704c0-35.392 28.608-64 64-64h229.504l173.248-173.248c12.48-12.48 28.864-18.752 45.248-18.752s32.768 6.272 45.248 18.752l173.248 173.248h229.504c35.392 0 64 28.608 64 64v704c0 35.392-28.608 64-64 64zM896 256h-192c-17.024 0-33.28-6.72-45.248-18.752l-146.752-146.752-146.752 146.752c-11.968 12.032-28.224 18.752-45.248 18.752h-192v576h768v-576z" />
<glyph unicode="&#xea7b;" glyph-name="map-marker" data-tags="map-marker" d="M512-64c-7.834 0-15.258 3.584-20.122 9.779-2.918 3.738-72.602 92.877-143.206 224.512-41.574 77.466-74.752 153.549-98.56 226.099-30.054 91.494-45.261 177.766-45.261 256.41 0 169.37 137.83 307.2 307.2 307.2s307.2-137.83 307.2-307.2c0-78.643-15.258-164.864-45.261-256.41-23.808-72.55-56.986-148.634-98.56-226.099-70.656-131.635-140.288-220.774-143.206-224.512-4.864-6.195-12.288-9.779-20.122-9.779zM512 908.8c-141.158 0-256-114.842-256-256 0-166.605 74.906-341.197 137.779-458.291 46.182-86.067 92.621-154.317 118.221-189.952 25.702 35.789 72.448 104.448 118.682 190.771 62.618 116.89 137.318 291.174 137.318 457.472 0 141.158-114.842 256-256 256zM512 499.2c-84.685 0-153.6 68.915-153.6 153.6s68.915 153.6 153.6 153.6 153.6-68.915 153.6-153.6-68.915-153.6-153.6-153.6zM512 755.2c-56.474 0-102.4-45.926-102.4-102.4s45.926-102.4 102.4-102.4c56.474 0 102.4 45.926 102.4 102.4s-45.926 102.4-102.4 102.4z" />
<glyph unicode="&#xea7d;" glyph-name="ui-2_chat" data-tags="ui-2_chat" d="M960 960h-896c-35.392 0-64-28.608-64-64v-704c0-35.392 28.608-64 64-64h229.504l173.248-173.248c12.48-12.48 28.864-18.752 45.248-18.752s32.768 6.272 45.248 18.752l173.248 173.248h229.504c35.392 0 64 28.608 64 64v704c0 35.392-28.608 64-64 64z" />
<glyph unicode="&#xea86;" glyph-name="ui-2_filter" data-tags="ui-2_filter" d="M960 960h-896c-35.328 0-64-28.608-64-64v-128c0-19.008 8.448-36.992 23.040-49.216l360.96-300.8v-417.984c0-25.856 15.616-49.28 39.488-59.136 7.936-3.328 16.256-4.864 24.512-4.864 16.64 0 33.024 6.528 45.248 18.752l128 128c12.032 11.968 18.752 28.224 18.752 45.248v289.984l360.96 300.8c14.592 12.224 23.040 30.208 23.040 49.216v128c0 35.392-28.672 64-64 64z" />
<glyph unicode="&#xea88;" glyph-name="ui-2_grid-45" data-tags="ui-2_grid-45" d="M64 512h320c35.328 0 64 28.672 64 64v320c0 35.328-28.672 64-64 64h-320c-35.328 0-64-28.672-64-64v-320c0-35.328 28.672-64 64-64zM960 960h-320c-35.328 0-64-28.672-64-64v-320c0-35.328 28.672-64 64-64h320c35.328 0 64 28.672 64 64v320c0 35.328-28.672 64-64 64zM64-64h320c35.328 0 64 28.672 64 64v320c0 35.328-28.672 64-64 64h-320c-35.328 0-64-28.672-64-64v-320c0-35.328 28.672-64 64-64zM960 384h-320c-35.328 0-64-28.672-64-64v-320c0-35.328 28.672-64 64-64h320c35.328 0 64 28.672 64 64v320c0 35.328-28.672 64-64 64z" />
<glyph unicode="&#xea97;" glyph-name="ui-2_menu-34" data-tags="ui-2_menu-34" d="M960 512h-896c-35.328 0-64-28.672-64-64s28.672-64 64-64h896c35.328 0 64 28.672 64 64s-28.672 64-64 64zM960 896h-896c-35.328 0-64-28.672-64-64s28.672-64 64-64h896c35.328 0 64 28.672 64 64s-28.672 64-64 64zM960 128h-896c-35.328 0-64-28.672-64-64s28.672-64 64-64h896c35.328 0 64 28.672 64 64s-28.672 64-64 64z" />
<glyph unicode="&#xea9d;" glyph-name="ui-2_paragraph" data-tags="ui-2_paragraph" d="M64 512h320c35.328 0 64 28.672 64 64v320c0 35.328-28.672 64-64 64h-320c-35.328 0-64-28.672-64-64v-320c0-35.328 28.672-64 64-64zM64-64h320c35.328 0 64 28.672 64 64v320c0 35.328-28.672 64-64 64h-320c-35.328 0-64-28.672-64-64v-320c0-35.328 28.672-64 64-64zM576 896h448v-128h-448v128zM576 704h448v-128h-448v128zM576 320h448v-128h-448v128zM576 128h448v-128h-448v128z" />
<glyph unicode="&#xeaa0;" glyph-name="ui-2_share" data-tags="ui-2_share" d="M256 256c45.056 0 85.952 16.256 118.72 42.304l206.080-128.768c-2.944-13.44-4.8-27.264-4.8-41.536 0-105.856 86.144-192 192-192s192 86.144 192 192-86.144 192-192 192c-45.056 0-85.952-16.256-118.72-42.304l-206.080 128.768c2.944 13.44 4.8 27.264 4.8 41.536s-1.856 28.096-4.8 41.536l206.080 128.768c32.768-26.048 73.664-42.304 118.72-42.304 105.856 0 192 86.144 192 192s-86.144 192-192 192-192-86.144-192-192c0-14.272 1.856-28.096 4.8-41.536l-206.080-128.768c-32.768 26.048-73.664 42.304-118.72 42.304-105.856 0-192-86.144-192-192s86.144-192 192-192z" />
<glyph unicode="&#xeaec;" glyph-name="transportation_truck-front" data-tags="transportation_truck-front" d="M1024 512v192h-128v128c0 70.4-57.6 128-128 128h-512c-70.4 0-128-57.6-128-128v-128h-128v-192h128v-38.4l-44.8-44.8c-12.8-12.8-19.2-25.6-19.2-44.8v-256c0-38.4 25.6-64 64-64v-64c0-38.4 25.6-64 64-64h128c38.4 0 64 25.6 64 64v64h256v-64c0-38.4 25.6-64 64-64h128c38.4 0 64 25.6 64 64v64c38.4 0 64 25.6 64 64v256c0 19.2-6.4 32-19.2 44.8l-44.8 44.8v38.4h128zM256 192c-38.4 0-64 25.6-64 64s25.6 64 64 64c38.4 0 64-25.6 64-64s-25.6-64-64-64zM256 512v256h512v-256h-512zM768 192c-38.4 0-64 25.6-64 64s25.6 64 64 64c38.4 0 64-25.6 64-64s-25.6-64-64-64z" />
<glyph unicode="&#xeb16;" glyph-name="text_quote" data-tags="text_quote" d="M193.512 668.12c-75.845-94.806-86.788-190.355-64.504-257.21 84.217 66.878 201.259 52.874 272.529-13.707 71.994-67.258 78.189-185.486 32.252-262.047-38.643-64.404-106.504-103.206-182.223-103.206-172.323 0-251.566 151.986-251.566 322.52 0 110.732 28.22 209.907 84.661 297.524s141.64 158.303 255.597 212.057l30.64-59.667c-68.804-29.027-127.933-74.448-177.386-136.264zM754.696 668.12c-75.844-94.806-86.788-190.355-64.504-257.21 37.628 29.027 78.48 43.54 122.557 43.54 115.945 0 211.25-77.221 211.25-211.251 0-123.246-94.582-211.251-211.251-211.251-172.323 0-251.565 151.986-251.565 322.52 0 110.732 28.22 209.907 84.661 297.524s141.64 158.303 255.597 212.057l30.639-59.666c-68.804-29.027-127.932-74.449-177.385-136.265z" />
<glyph unicode="&#xeb81;" glyph-name="icons2" data-tags="icons2" d="M179.2-12.8h-102.4c-42.342 0-76.8 34.458-76.8 76.8v102.4c0 42.342 34.458 76.8 76.8 76.8h102.4c42.342 0 76.8-34.458 76.8-76.8v-102.4c0-42.342-34.458-76.8-76.8-76.8zM76.8 192c-14.131 0-25.6-11.469-25.6-25.6v-102.4c0-14.131 11.469-25.6 25.6-25.6h102.4c14.131 0 25.6 11.469 25.6 25.6v102.4c0 14.131-11.469 25.6-25.6 25.6h-102.4zM537.6-12.8h-102.4c-42.342 0-76.8 34.458-76.8 76.8v102.4c0 42.342 34.458 76.8 76.8 76.8h102.4c42.342 0 76.8-34.458 76.8-76.8v-102.4c0-42.342-34.458-76.8-76.8-76.8zM435.2 192c-14.131 0-25.6-11.469-25.6-25.6v-102.4c0-14.131 11.469-25.6 25.6-25.6h102.4c14.131 0 25.6 11.469 25.6 25.6v102.4c0 14.131-11.469 25.6-25.6 25.6h-102.4zM896-12.8h-102.4c-42.342 0-76.8 34.458-76.8 76.8v102.4c0 42.342 34.458 76.8 76.8 76.8h102.4c42.342 0 76.8-34.458 76.8-76.8v-102.4c0-42.342-34.458-76.8-76.8-76.8zM793.6 192c-14.131 0-25.6-11.469-25.6-25.6v-102.4c0-14.131 11.469-25.6 25.6-25.6h102.4c14.131 0 25.6 11.469 25.6 25.6v102.4c0 14.131-11.469 25.6-25.6 25.6h-102.4zM179.2 345.6h-102.4c-42.342 0-76.8 34.458-76.8 76.8v102.4c0 42.342 34.458 76.8 76.8 76.8h102.4c42.342 0 76.8-34.458 76.8-76.8v-102.4c0-42.342-34.458-76.8-76.8-76.8zM76.8 550.4c-14.131 0-25.6-11.469-25.6-25.6v-102.4c0-14.131 11.469-25.6 25.6-25.6h102.4c14.131 0 25.6 11.469 25.6 25.6v102.4c0 14.131-11.469 25.6-25.6 25.6h-102.4zM537.6 345.6h-102.4c-42.342 0-76.8 34.458-76.8 76.8v102.4c0 42.342 34.458 76.8 76.8 76.8h102.4c42.342 0 76.8-34.458 76.8-76.8v-102.4c0-42.342-34.458-76.8-76.8-76.8zM435.2 550.4c-14.131 0-25.6-11.469-25.6-25.6v-102.4c0-14.131 11.469-25.6 25.6-25.6h102.4c14.131 0 25.6 11.469 25.6 25.6v102.4c0 14.131-11.469 25.6-25.6 25.6h-102.4zM896 345.6h-102.4c-42.342 0-76.8 34.458-76.8 76.8v102.4c0 42.342 34.458 76.8 76.8 76.8h102.4c42.342 0 76.8-34.458 76.8-76.8v-102.4c0-42.342-34.458-76.8-76.8-76.8zM793.6 550.4c-14.131 0-25.6-11.469-25.6-25.6v-102.4c0-14.131 11.469-25.6 25.6-25.6h102.4c14.131 0 25.6 11.469 25.6 25.6v102.4c0 14.131-11.469 25.6-25.6 25.6h-102.4zM179.2 704h-102.4c-42.342 0-76.8 34.458-76.8 76.8v102.4c0 42.342 34.458 76.8 76.8 76.8h102.4c42.342 0 76.8-34.458 76.8-76.8v-102.4c0-42.342-34.458-76.8-76.8-76.8zM76.8 908.8c-14.131 0-25.6-11.469-25.6-25.6v-102.4c0-14.131 11.469-25.6 25.6-25.6h102.4c14.131 0 25.6 11.469 25.6 25.6v102.4c0 14.131-11.469 25.6-25.6 25.6h-102.4zM537.6 704h-102.4c-42.342 0-76.8 34.458-76.8 76.8v102.4c0 42.342 34.458 76.8 76.8 76.8h102.4c42.342 0 76.8-34.458 76.8-76.8v-102.4c0-42.342-34.458-76.8-76.8-76.8zM435.2 908.8c-14.131 0-25.6-11.469-25.6-25.6v-102.4c0-14.131 11.469-25.6 25.6-25.6h102.4c14.131 0 25.6 11.469 25.6 25.6v102.4c0 14.131-11.469 25.6-25.6 25.6h-102.4zM896 704h-102.4c-42.342 0-76.8 34.458-76.8 76.8v102.4c0 42.342 34.458 76.8 76.8 76.8h102.4c42.342 0 76.8-34.458 76.8-76.8v-102.4c0-42.342-34.458-76.8-76.8-76.8zM793.6 908.8c-14.131 0-25.6-11.469-25.6-25.6v-102.4c0-14.131 11.469-25.6 25.6-25.6h102.4c14.131 0 25.6 11.469 25.6 25.6v102.4c0 14.131-11.469 25.6-25.6 25.6h-102.4z" />
<glyph unicode="&#xebb2;" glyph-name="shopping_cart-modern" data-tags="shopping_cart-modern" d="M832 256h-640c-38.4 0-64 25.6-64 64v512h-128v128h192c38.4 0 64-25.6 64-64v-64h704c57.6 0 64-64 64-83.2l-128-448c-12.8-25.6-38.4-44.8-64-44.8zM256 384h524.8l89.6 320h-614.4v-320zM320 64c0-70.692-57.308-128-128-128s-128 57.308-128 128c0 70.692 57.308 128 128 128s128-57.308 128-128zM960 64c0-70.692-57.308-128-128-128s-128 57.308-128 128c0 70.692 57.308 128 128 128s128-57.308 128-128z" />
<glyph unicode="&#xebd8;" glyph-name="education_hat" data-tags="education_hat" d="M992 697.6l-448 256c-19.2 6.4-44.8 6.4-64 0l-448-256c-44.8-25.6-44.8-89.6 0-108.8l448-256c19.2-12.8 44.8-12.8 64 0l448 256c44.8 19.2 44.8 83.2 0 108.8zM608 217.6c-32-19.2-64-25.6-96-25.6s-64 6.4-96 25.6l-288 166.4v-256c0-134.4 198.4-192 384-192s384 57.6 384 192v256l-288-166.4z" />
<glyph unicode="&#xebd9;" glyph-name="education_language" data-tags="education_language" d="M832 0h-768c-51.2 0-83.2 57.6-51.2 102.4l179.2 236.8v364.8c0 108.8 83.2 192 192 192h448c108.8 0 192-83.2 192-192v-512c0-108.8-83.2-192-192-192zM192 128h640c38.4 0 64 25.6 64 64v512c0 38.4-25.6 64-64 64h-448c-38.4 0-64-25.6-64-64v-384c0-12.8-6.4-25.6-12.8-38.4l-115.2-153.6zM448 640h320v-128h-320v128zM448 384h320v-128h-320v128z" />
<glyph unicode="&#xebe8;" glyph-name="clock3" data-tags="clock3" d="M830.362 782.362c-91.853 91.853-214.016 142.438-343.962 142.438s-252.058-50.586-343.962-142.438c-91.853-91.853-142.438-214.016-142.438-343.91s50.586-252.058 142.438-343.962 214.016-142.438 343.962-142.438 252.058 50.586 343.962 142.438 142.438 214.016 142.438 343.962-50.586 252.058-142.438 343.91zM486.4 3.2c-239.974 0-435.2 195.226-435.2 435.2s195.226 435.2 435.2 435.2 435.2-195.226 435.2-435.2-195.226-435.2-435.2-435.2zM774.605 604.8c-7.066 12.237-22.733 16.435-34.97 9.37l-251.904-145.459-196.352 137.472c-11.571 8.090-27.546 5.274-35.635-6.298s-5.274-27.546 6.298-35.635l209.715-146.842c0.051-0.051 0.102-0.051 0.154-0.102 0.41-0.307 0.87-0.563 1.331-0.819 0.102-0.051 0.256-0.154 0.358-0.205 0.461-0.256 0.922-0.512 1.382-0.717 0.102-0.051 0.205-0.102 0.307-0.154 0.512-0.256 1.024-0.461 1.587-0.717 0.307-0.102 0.614-0.256 0.973-0.358 0.256-0.102 0.461-0.154 0.717-0.256 0.358-0.102 0.666-0.205 1.024-0.307 0.205-0.051 0.461-0.102 0.666-0.154 0.358-0.102 0.717-0.154 1.024-0.256 0.256-0.051 0.461-0.102 0.717-0.154 0.307-0.051 0.666-0.102 0.973-0.154s0.614-0.051 0.922-0.102c0.256-0.051 0.563-0.051 0.819-0.102 0.614-0.051 1.178-0.051 1.792-0.051 0.973 0 1.946 0.051 2.918 0.154 0 0 0.051 0 0.051 0 0.922 0.102 1.894 0.307 2.816 0.512 0.051 0 0.154 0.051 0.205 0.051 0.87 0.205 1.741 0.461 2.611 0.819 0.154 0.051 0.256 0.102 0.358 0.154 0.819 0.307 1.638 0.666 2.406 1.075 0.154 0.102 0.307 0.154 0.461 0.256 0.307 0.154 0.563 0.307 0.87 0.461l266.035 153.6c12.237 7.066 16.435 22.733 9.37 34.97z" />
<glyph unicode="&#xec23;" glyph-name="magnifier" data-tags="magnifier" d="M966.093-21.094l-304.282 331.981c68.557 71.731 106.24 165.53 106.24 265.114 0 102.554-39.936 199.014-112.486 271.514s-168.96 112.486-271.514 112.486-199.014-39.936-271.514-112.486-112.486-168.96-112.486-271.514 39.936-199.014 112.486-271.514 168.96-112.486 271.514-112.486c88.371 0 172.134 29.645 240.026 84.224l304.282-331.93c5.069-5.53 11.93-8.294 18.893-8.294 6.195 0 12.39 2.202 17.306 6.707 10.445 9.574 11.11 25.754 1.587 36.147zM51.2 576c0 183.501 149.299 332.8 332.8 332.8s332.8-149.299 332.8-332.8-149.299-332.8-332.8-332.8-332.8 149.299-332.8 332.8z" />
<glyph unicode="&#xec2c;" glyph-name="menu" data-tags="menu" d="M896 652.8h-768c-14.131 0-25.6 11.469-25.6 25.6s11.469 25.6 25.6 25.6h768c14.131 0 25.6-11.469 25.6-25.6s-11.469-25.6-25.6-25.6zM896 396.8h-768c-14.131 0-25.6 11.469-25.6 25.6s11.469 25.6 25.6 25.6h768c14.131 0 25.6-11.469 25.6-25.6s-11.469-25.6-25.6-25.6zM896 140.8h-768c-14.131 0-25.6 11.469-25.6 25.6s11.469 25.6 25.6 25.6h768c14.131 0 25.6-11.469 25.6-25.6s-11.469-25.6-25.6-25.6z" />
<glyph unicode="&#xec31;" glyph-name="list4" data-tags="list4" d="M947.2 601.6h-614.4c-42.342 0-76.8 34.458-76.8 76.8s34.458 76.8 76.8 76.8h614.4c42.342 0 76.8-34.458 76.8-76.8s-34.458-76.8-76.8-76.8zM332.8 704c-14.131 0-25.6-11.469-25.6-25.6s11.469-25.6 25.6-25.6h614.4c14.131 0 25.6 11.469 25.6 25.6s-11.469 25.6-25.6 25.6h-614.4zM947.2 345.6h-614.4c-42.342 0-76.8 34.458-76.8 76.8s34.458 76.8 76.8 76.8h614.4c42.342 0 76.8-34.458 76.8-76.8s-34.458-76.8-76.8-76.8zM332.8 448c-14.131 0-25.6-11.469-25.6-25.6s11.469-25.6 25.6-25.6h614.4c14.131 0 25.6 11.469 25.6 25.6s-11.469 25.6-25.6 25.6h-614.4zM947.2 89.6h-614.4c-42.342 0-76.8 34.458-76.8 76.8s34.458 76.8 76.8 76.8h614.4c42.342 0 76.8-34.458 76.8-76.8s-34.458-76.8-76.8-76.8zM332.8 192c-14.131 0-25.6-11.469-25.6-25.6s11.469-25.6 25.6-25.6h614.4c14.131 0 25.6 11.469 25.6 25.6s-11.469 25.6-25.6 25.6h-614.4zM76.8 601.6c-42.342 0-76.8 34.458-76.8 76.8s34.458 76.8 76.8 76.8 76.8-34.458 76.8-76.8-34.458-76.8-76.8-76.8zM76.8 704c-14.131 0-25.6-11.469-25.6-25.6s11.469-25.6 25.6-25.6 25.6 11.469 25.6 25.6-11.469 25.6-25.6 25.6zM76.8 345.6c-42.342 0-76.8 34.458-76.8 76.8s34.458 76.8 76.8 76.8 76.8-34.458 76.8-76.8-34.458-76.8-76.8-76.8zM76.8 448c-14.131 0-25.6-11.469-25.6-25.6s11.469-25.6 25.6-25.6 25.6 11.469 25.6 25.6-11.469 25.6-25.6 25.6zM76.8 89.6c-42.342 0-76.8 34.458-76.8 76.8s34.458 76.8 76.8 76.8 76.8-34.458 76.8-76.8-34.458-76.8-76.8-76.8zM76.8 192c-14.131 0-25.6-11.469-25.6-25.6s11.469-25.6 25.6-25.6 25.6 11.469 25.6 25.6-11.469 25.6-25.6 25.6z" />
<glyph unicode="&#xec38;" glyph-name="cross2" data-tags="cross2" d="M548.198 422.4l442.675 442.675c9.984 9.984 9.984 26.214 0 36.198s-26.214 9.984-36.198 0l-442.675-442.675-442.675 442.675c-9.984 9.984-26.214 9.984-36.198 0s-9.984-26.214 0-36.198l442.675-442.675-442.675-442.675c-9.984-9.984-9.984-26.214 0-36.198 5.018-5.018 11.571-7.475 18.125-7.475s13.107 2.509 18.125 7.475l442.675 442.675 442.675-442.675c5.018-5.018 11.571-7.475 18.125-7.475s13.107 2.509 18.125 7.475c9.984 9.984 9.984 26.214 0 36.198l-442.675 442.675z" />
<glyph unicode="&#xec3d;" glyph-name="plus" data-tags="plus" d="M947.2 448h-435.2v435.2c0 14.131-11.469 25.6-25.6 25.6s-25.6-11.469-25.6-25.6v-435.2h-435.2c-14.131 0-25.6-11.469-25.6-25.6s11.469-25.6 25.6-25.6h435.2v-435.2c0-14.131 11.469-25.6 25.6-25.6s25.6 11.469 25.6 25.6v435.2h435.2c14.131 0 25.6 11.469 25.6 25.6s-11.469 25.6-25.6 25.6z" />
<glyph unicode="&#xec3e;" glyph-name="minus" data-tags="minus" d="M947.2 396.8h-921.6c-14.131 0-25.6 11.469-25.6 25.6s11.469 25.6 25.6 25.6h921.6c14.131 0 25.6-11.469 25.6-25.6s-11.469-25.6-25.6-25.6z" />
<glyph unicode="&#xec3f;" glyph-name="plus1" data-tags="plus" d="M947.2 448h-435.2v435.2c0 14.131-11.469 25.6-25.6 25.6s-25.6-11.469-25.6-25.6v-435.2h-435.2c-14.131 0-25.6-11.469-25.6-25.6s11.469-25.6 25.6-25.6h435.2v-435.2c0-14.131 11.469-25.6 25.6-25.6s25.6 11.469 25.6 25.6v435.2h435.2c14.131 0 25.6 11.469 25.6 25.6s-11.469 25.6-25.6 25.6z" />
<glyph unicode="&#xec40;" glyph-name="chevron-up" data-tags="chevron-up" d="M0 192c0-6.554 2.509-13.107 7.475-18.125 9.984-9.984 26.214-9.984 36.198 0l442.675 442.675 442.675-442.675c9.984-9.984 26.214-9.984 36.198 0s9.984 26.214 0 36.198l-460.8 460.8c-9.984 9.984-26.214 9.984-36.198 0l-460.8-460.8c-5.018-5.018-7.475-11.571-7.475-18.125z" />
<glyph unicode="&#xec41;" glyph-name="chevron-down" data-tags="chevron-down" d="M0 652.8c0 6.554 2.509 13.107 7.475 18.125 9.984 9.984 26.214 9.984 36.198 0l442.675-442.675 442.675 442.675c9.984 9.984 26.214 9.984 36.198 0s9.984-26.214 0-36.198l-460.8-460.8c-9.984-9.984-26.214-9.984-36.198 0l-460.8 460.8c-5.018 5.018-7.475 11.571-7.475 18.125z" />
<glyph unicode="&#xec42;" glyph-name="chevron-left" data-tags="chevron-left" d="M716.8-64c6.554 0 13.107 2.509 18.125 7.475 9.984 9.984 9.984 26.214 0 36.198l-442.675 442.675 442.675 442.675c9.984 9.984 9.984 26.214 0 36.198s-26.214 9.984-36.198 0l-460.8-460.8c-9.984-9.984-9.984-26.214 0-36.198l460.8-460.8c5.018-5.018 11.571-7.475 18.125-7.475z" />
<glyph unicode="&#xec45;" glyph-name="chevron-right" data-tags="chevron-right" d="M256-64c-6.554 0-13.107 2.509-18.125 7.475-9.984 9.984-9.984 26.214 0 36.198l442.675 442.675-442.675 442.675c-9.984 9.984-9.984 26.214 0 36.198s26.214 9.984 36.198 0l460.8-460.8c9.984-9.984 9.984-26.214 0-36.198l-460.8-460.8c-5.018-5.018-11.571-7.475-18.125-7.475z" />
<glyph unicode="&#xec46;" glyph-name="minus1" data-tags="minus" d="M947.2 396.8h-921.6c-14.131 0-25.6 11.469-25.6 25.6s11.469 25.6 25.6 25.6h921.6c14.131 0 25.6-11.469 25.6-25.6s-11.469-25.6-25.6-25.6z" />
<glyph unicode="&#xec47;" glyph-name="arrow-left" data-tags="arrow-left" d="M33.075 440.525l307.2 307.2c9.984 9.984 26.214 9.984 36.198 0s9.984-26.214 0-36.198l-263.475-263.475h834.202c14.131 0 25.6-11.469 25.6-25.6s-11.469-25.6-25.6-25.6h-834.202l263.475-263.475c9.984-9.984 9.984-26.214 0-36.198-5.018-5.018-11.571-7.475-18.125-7.475s-13.107 2.509-18.125 7.475l-307.2 307.2c-9.984 9.984-9.984 26.214 0 36.198z" />
<glyph unicode="&#xec48;" glyph-name="arrow-right" data-tags="arrow-right" d="M990.925 440.525l-307.2 307.2c-9.984 9.984-26.214 9.984-36.198 0s-9.984-26.214 0-36.198l263.475-263.475h-834.202c-14.131 0-25.6-11.469-25.6-25.6s11.469-25.6 25.6-25.6h834.202l-263.475-263.475c-9.984-9.984-9.984-26.214 0-36.198 5.018-5.018 11.571-7.475 18.125-7.475s13.107 2.509 18.125 7.475l307.2 307.2c9.984 9.984 9.984 26.214 0 36.198z" />
<glyph unicode="&#xec59;" glyph-name="checkmark-circle" data-tags="checkmark-circle" d="M486.4-64c-129.946 0-252.058 50.586-343.962 142.438s-142.438 214.016-142.438 343.91c0 129.946 50.586 252.058 142.438 343.962s214.016 142.49 343.962 142.49c129.946 0 252.058-50.586 343.962-142.49s142.438-214.016 142.438-343.962-50.586-252.058-142.438-343.91c-91.853-91.853-214.016-142.438-343.962-142.438zM486.4 857.6c-239.974 0-435.2-195.226-435.2-435.2s195.226-435.2 435.2-435.2 435.2 195.226 435.2 435.2-195.226 435.2-435.2 435.2zM384 217.6c-6.554 0-13.107 2.509-18.125 7.475l-153.6 153.6c-9.984 9.984-9.984 26.214 0 36.198s26.214 9.984 36.198 0l135.475-135.475 340.275 340.275c9.984 9.984 26.214 9.984 36.198 0s9.984-26.214 0-36.198l-358.4-358.4c-5.018-5.018-11.571-7.475-18.125-7.475z" />
<glyph unicode="&#xec8b;" glyph-name="holidays_gift" data-tags="holidays_gift" d="M960 704h-76.801c6.402 19.199 12.801 38.402 12.801 64 0 108.801-83.199 192-192 192-89.602 0-153.602-51.199-192-108.801-38.398 57.602-102.398 108.801-192 108.801-108.801 0-192-83.199-192-192 0-25.598 6.398-44.801 12.801-64h-76.801c-35.375 0-64-28.656-64-64v-192c0-35.344 28.625-64 64-64h64v-384c0-35.344 28.625-64 64-64h640c35.375 0 64 28.656 64 64v384h64c35.375 0 64 28.656 64 64v192c0 35.344-28.625 64-64 64zM704 832c38.398 0 64-25.598 64-64 0-38.398-25.602-64-64-64h-115.199c12.801 57.602 44.801 128 115.199 128zM256 768c0 38.402 25.602 64 64 64 70.398 0 102.398-70.398 115.199-128h-115.199c-38.398 0-64 25.602-64 64zM256 384h192v-320h-192v320zM768 64h-192v320h192v-320zM896 512h-768v64h768v-64z" />
<glyph unicode="&#xec9c;" glyph-name="prohibited" data-tags="prohibited" d="M874.035 810.035c-96.717 96.717-225.28 149.965-362.035 149.965s-265.318-53.248-362.035-149.965-149.965-225.28-149.965-362.035c0-136.755 53.248-265.318 149.965-362.035s225.28-149.965 362.035-149.965c136.755 0 265.318 53.248 362.035 149.965s149.965 225.28 149.965 362.035c0 136.755-53.248 265.318-149.965 362.035zM512 908.8c129.638 0 246.938-53.811 330.752-140.288l-695.040-602.368c-60.467 77.978-96.512 175.77-96.512 281.856 0 254.106 206.694 460.8 460.8 460.8zM512-12.8c-129.638 0-246.938 53.811-330.752 140.288l695.040 602.368c60.467-77.978 96.512-175.77 96.512-281.856 0-254.106-206.694-460.8-460.8-460.8z" />
<glyph unicode="&#xeca6;" glyph-name="health_heartbeat-16" data-tags="health_heartbeat-16" d="M473.6-32c-51.2 44.8-473.6 396.8-473.6 665.6 0 172.8 140.8 307.2 307.2 307.2 76.8 0 147.2-32 204.8-76.8 57.6 51.2 128 76.8 204.8 76.8 172.8 0 307.2-140.8 307.2-307.2 0-268.8-422.4-620.8-473.6-659.2-19.2-25.6-57.6-25.6-76.8-6.4zM307.2 812.8c-96 0-179.2-83.2-179.2-179.2 0-140.8 224-384 384-524.8 134.4 121.6 384 371.2 384 524.8 0 102.4-83.2 179.2-179.2 179.2-57.6 0-115.2-32-147.2-83.2-25.6-38.4-83.2-38.4-108.8 0-38.4 51.2-89.6 83.2-153.6 83.2z" />
<glyph unicode="&#xecbb;" glyph-name="sort-amount-asc" data-tags="sort-amount-asc" d="M453.325 210.125c-9.984 9.984-26.214 9.984-36.198 0l-161.075-161.075v885.402c0 14.131-11.469 25.6-25.6 25.6s-25.6-11.469-25.6-25.6v-885.402l-161.075 161.075c-9.984 9.984-26.214 9.984-36.198 0s-9.984-26.214 0-36.198l204.8-204.8c5.018-5.018 11.571-7.475 18.125-7.475s13.107 2.509 18.125 7.475l204.8 204.8c9.984 9.984 9.984 26.214 0 36.198zM691.2 704h-102.4c-14.131 0-25.6 11.469-25.6 25.6v102.4c0 14.131 11.469 25.6 25.6 25.6h102.4c14.131 0 25.6-11.469 25.6-25.6v-102.4c0-14.131-11.469-25.6-25.6-25.6zM614.4 755.2h51.2v51.2h-51.2v-51.2zM793.6 499.2h-204.8c-14.131 0-25.6 11.469-25.6 25.6v102.4c0 14.131 11.469 25.6 25.6 25.6h204.8c14.131 0 25.6-11.469 25.6-25.6v-102.4c0-14.131-11.469-25.6-25.6-25.6zM614.4 550.4h153.6v51.2h-153.6v-51.2zM896 294.4h-307.2c-14.131 0-25.6 11.469-25.6 25.6v102.4c0 14.131 11.469 25.6 25.6 25.6h307.2c14.131 0 25.6-11.469 25.6-25.6v-102.4c0-14.131-11.469-25.6-25.6-25.6zM614.4 345.6h256v51.2h-256v-51.2zM998.4 89.6h-409.6c-14.131 0-25.6 11.469-25.6 25.6v102.4c0 14.131 11.469 25.6 25.6 25.6h409.6c14.131 0 25.6-11.469 25.6-25.6v-102.4c0-14.131-11.469-25.6-25.6-25.6zM614.4 140.8h358.4v51.2h-358.4v-51.2z" />
<glyph unicode="&#xecbc;" glyph-name="sort-amount-desc" data-tags="sort-amount-desc" d="M453.325 210.125c-9.984 9.984-26.214 9.984-36.198 0l-161.075-161.075v885.402c0 14.131-11.469 25.6-25.6 25.6s-25.6-11.469-25.6-25.6v-885.402l-161.075 161.075c-9.984 9.984-26.214 9.984-36.198 0s-9.984-26.214 0-36.198l204.8-204.8c5.018-5.018 11.571-7.475 18.125-7.475s13.107 2.509 18.125 7.475l204.8 204.8c9.984 9.984 9.984 26.214 0 36.198zM691.2 89.6h-102.4c-14.131 0-25.6 11.469-25.6 25.6v102.4c0 14.131 11.469 25.6 25.6 25.6h102.4c14.131 0 25.6-11.469 25.6-25.6v-102.4c0-14.131-11.469-25.6-25.6-25.6zM614.4 140.8h51.2v51.2h-51.2v-51.2zM793.6 294.4h-204.8c-14.131 0-25.6 11.469-25.6 25.6v102.4c0 14.131 11.469 25.6 25.6 25.6h204.8c14.131 0 25.6-11.469 25.6-25.6v-102.4c0-14.131-11.469-25.6-25.6-25.6zM614.4 345.6h153.6v51.2h-153.6v-51.2zM896 499.2h-307.2c-14.131 0-25.6 11.469-25.6 25.6v102.4c0 14.131 11.469 25.6 25.6 25.6h307.2c14.131 0 25.6-11.469 25.6-25.6v-102.4c0-14.131-11.469-25.6-25.6-25.6zM614.4 550.4h256v51.2h-256v-51.2zM998.4 704h-409.6c-14.131 0-25.6 11.469-25.6 25.6v102.4c0 14.131 11.469 25.6 25.6 25.6h409.6c14.131 0 25.6-11.469 25.6-25.6v-102.4c0-14.131-11.469-25.6-25.6-25.6zM614.4 755.2h358.4v51.2h-358.4v-51.2z" />
<glyph unicode="&#xed2f;" glyph-name="files_archive-check" data-tags="files_archive-check" d="M960 960h-896c-38.4 0-64-25.6-64-64v-896c0-38.4 25.6-64 64-64h896c38.4 0 64 25.6 64 64v896c0 38.4-25.6 64-64 64zM896 832v-576h-192c-38.4 0-64-25.6-64-64v-64h-256v64c0 38.4-25.6 64-64 64h-192v576h768zM403.2 339.2c32-32 64-25.6 89.6 0l256 256c25.6 25.6 25.6 64 0 89.6s-64 25.6-89.6 0l-211.2-211.2-83.2 83.2c-25.6 25.6-64 25.6-89.6 0s-25.6-64 0-89.6l128-128z" />
<glyph unicode="&#xedc3;" glyph-name="design_pen-01" data-tags="design_pen-01" d="M64-64h192c16.96 0 33.28 6.72 45.248 18.752l498.752 498.752-282.496 282.496-498.752-498.752c-12.032-11.968-18.752-28.288-18.752-45.248v-192c0-35.328 28.672-64 64-64zM813.248 941.248c-25.024 25.024-65.472 25.024-90.496 0l-114.752-114.752 282.496-282.496 114.752 114.752c25.024 25.024 25.024 65.472 0 90.496l-192 192z" />
<glyph unicode="&#xee19;" glyph-name="business_chart-bar-32" data-tags="business_chart-bar-32" d="M576 960h-128c-38.4 0-64-25.6-64-64v-896c0-38.4 25.6-64 64-64h128c38.4 0 64 25.6 64 64v896c0 38.4-25.6 64-64 64zM192 320h-128c-38.4 0-64-25.6-64-64v-256c0-38.4 25.6-64 64-64h128c38.4 0 64 25.6 64 64v256c0 38.4-25.6 64-64 64zM960 640h-128c-38.4 0-64-25.6-64-64v-576c0-38.4 25.6-64 64-64h128c38.4 0 64 25.6 64 64v576c0 38.4-25.6 64-64 64z" />
<glyph unicode="&#xee7d;" glyph-name="ui-3_funnel-39" data-tags="ui-3_funnel-39" d="M448 128c-35.328 0-64-28.672-64-64s28.672-64 64-64h128c35.328 0 64 28.672 64 64s-28.672 64-64 64h-128zM768 320c0 35.328-28.672 64-64 64h-384c-35.328 0-64-28.672-64-64s28.672-64 64-64h384c35.328 0 64 28.672 64 64zM896 576c0 35.328-28.672 64-64 64h-640c-35.328 0-64-28.672-64-64s28.672-64 64-64h640c35.328 0 64 28.672 64 64zM960 896h-896c-35.328 0-64-28.672-64-64s28.672-64 64-64h896c35.328 0 64 28.672 64 64s-28.672 64-64 64z" />
<glyph unicode="&#xee97;" glyph-name="ui-e_round-e-help" data-tags="ui-e_round-e-help" d="M512 960c-281.6 0-512-230.4-512-512s230.4-512 512-512 512 230.4 512 512-230.4 512-512 512zM512 64c-211.2 0-384 172.8-384 384s172.8 384 384 384 384-172.8 384-384-172.8-384-384-384zM576 192c0-35.346-28.654-64-64-64s-64 28.654-64 64c0 35.346 28.654 64 64 64s64-28.654 64-64zM454.4 608c12.8 19.2 32 32 57.6 32 38.4 0 64-25.6 64-64 0-19.2-6.4-25.6-38.4-44.8-38.4-25.6-89.6-64-89.6-147.2v-64h128v64c0 12.8 0 19.2 32 38.4 38.4 25.6 96 64 96 153.6 0 108.8-83.2 192-192 192-70.4 0-134.4-38.4-166.4-96l-32-57.6 108.8-64 32 57.6z" />
<glyph unicode="&#xf081;" glyph-name="twitter_sign" data-tags="twitter_sign" d="M732.86 584.71q-32.062-14.314-69.279-19.467 38.933 22.901 53.247 66.987-37.215-21.756-76.721-29.2-34.925 37.788-87.6 37.788-49.812 0-85.023-35.211t-35.211-85.023q0-16.603 2.863-27.483-73.858 4.008-138.556 37.215t-109.928 88.745q-16.603-28.627-16.603-60.689 0-65.271 52.102-100.196-26.909 0.573-57.255 14.887v-1.145q0-42.941 28.627-76.436t70.424-41.51q-16.603-4.579-29.2-4.579-7.443 0-22.33 2.29 12.024-36.070 42.655-59.545t69.565-24.046q-66.416-51.529-149.435-51.529-14.887 0-28.627 1.718 84.737-53.82 184.36-53.82 64.126 0 120.234 20.326t96.188 54.392 68.991 78.44 42.941 92.752 14.028 96.474q0 10.306-0.573 15.459 36.070 25.764 60.118 62.408zM879.431 695.783v-549.644q0-68.133-48.38-116.514t-116.514-48.38h-549.644q-68.133 0-116.514 48.38t-48.38 116.514v549.644q0 68.133 48.38 116.514t116.514 48.38h549.644q68.133 0 116.514-48.38t48.38-116.514z" />
<glyph unicode="&#xf082;" glyph-name="facebook_sign" data-tags="facebook_sign" d="M714.538 860.676q68.133 0 116.514-48.38t48.38-116.514v-549.644q0-68.133-48.38-116.514t-116.514-48.38h-107.639v340.665h113.936l17.177 132.831h-131.113v84.737q0 32.062 13.455 48.094t52.388 16.032l69.85 0.573v118.518q-36.070 5.153-101.913 5.153-77.866 0-124.529-45.804t-46.663-129.395v-97.906h-114.51v-132.831h114.51v-340.665h-304.594q-68.133 0-116.514 48.38t-48.38 116.514v549.644q0 68.133 48.38 116.514t116.514 48.38h549.644z" />
<glyph unicode="&#xf08c;" glyph-name="linkedin_sign" data-tags="linkedin_sign" d="M135.694 124.381h132.258v397.347h-132.258v-397.347zM276.54 644.254q-0.573 29.772-20.611 49.239t-53.247 19.467-54.106-19.467-20.897-49.239q0-29.2 20.326-48.953t52.961-19.752h0.573q33.78 0 54.392 19.752t20.611 48.953zM611.48 124.381h132.258v227.874q0 88.172-41.796 133.403t-110.502 45.231q-77.866 0-119.663-66.987h1.145v57.826h-132.258q1.718-37.788 0-397.347h132.258v222.148q0 21.756 4.008 32.062 8.587 20.040 25.764 34.066t42.368 14.028q66.416 0 66.416-89.89v-212.414zM879.431 695.783v-549.644q0-68.133-48.38-116.514t-116.514-48.38h-549.644q-68.133 0-116.514 48.38t-48.38 116.514v549.644q0 68.133 48.38 116.514t116.514 48.38h549.644q68.133 0 116.514-48.38t48.38-116.514z" />
<glyph unicode="&#xf092;" glyph-name="github_sign" data-tags="github_sign" d="M297.151 246.907q2.29 3.435-1.718 7.443-5.153 4.008-8.016 1.145-2.29-3.435 1.718-7.443 5.153-4.008 8.016-1.145zM281.12 270.381q-2.863 4.008-6.871 2.29-3.435-2.29 0-6.871 4.008-4.579 6.871-2.863 3.435 2.29 0 7.443zM257.646 293.282q1.145 2.29-2.863 4.579-4.008 1.145-4.579-1.145-1.718-2.863 2.29-4.579 4.579-1.145 5.153 1.145zM269.669 280.114q1.145 0.573 0.859 2.577t-2.004 3.149q-3.435 4.008-5.726 1.718t0.573-6.298q3.435-3.435 6.298-1.145zM318.908 237.172q1.145 4.008-5.153 6.298-5.153 1.718-7.443-2.29-1.145-4.008 5.153-6.298 5.153-1.718 7.443 2.29zM342.956 235.455q0 4.579-6.871 4.579-5.726 0-5.726-4.579t6.298-4.579 6.298 4.579zM365.284 239.463q-1.145 4.008-7.443 2.863t-5.153-5.153q1.145-4.579 6.871-3.435t5.726 5.726zM732.86 420.961q0 121.38-85.882 207.261t-207.261 85.882-207.261-85.882-85.882-207.261q0-95.615 56.11-172.050t144.282-106.208q10.306-1.718 15.173 2.863t4.867 11.451q0 29.772-0.573 54.392-3.435-0.573-8.875-1.431t-20.326-1.145-27.483 2.29-24.905 11.451-16.889 23.76q-13.169 33.78-32.635 42.368-1.145 0.573-2.577 2.004l-4.579 4.579t-4.008 5.439 2.29 4.294 11.165 2.004q3.435 0 8.587-1.145t17.177-8.875 18.893-20.326q9.161-16.032 21.471-24.046t24.905-8.016 21.756 2.004 17.177 5.439q4.008 26.909 18.893 39.507-28.054 3.435-49.239 10.591t-41.796 22.33-31.776 43.513-11.165 68.42q0 45.231 30.346 78.44-13.74 35.499 2.863 77.866 10.879 3.435 31.203-4.294t34.639-16.889l14.887-9.161q33.207 9.733 73.286 9.733t73.286-9.733q6.298 4.008 16.318 10.306t31.776 14.887 32.635 5.153q16.603-42.368 2.863-77.866 30.346-33.207 30.346-78.44 0-32.635-8.016-57.541t-20.326-40.078-30.631-25.479-35.784-14.887-39.219-6.871q20.040-17.748 20.040-54.392 0-22.901-0.286-50.957t-0.286-29.2q0-6.871 4.867-11.451t15.173-2.863q88.172 29.772 144.282 106.208t56.11 172.050zM879.431 695.783v-549.644q0-68.133-48.38-116.514t-116.514-48.38h-549.644q-68.133 0-116.514 48.38t-48.38 116.514v549.644q0 68.133 48.38 116.514t116.514 48.38h549.644q68.133 0 116.514-48.38t48.38-116.514z" />
<glyph unicode="&#xf099;" glyph-name="twitter" data-tags="twitter" horiz-adv-x="953" d="M927.525 700.362q-38.36-56.11-92.752-95.615 0.573-8.016 0.573-24.046 0-74.432-21.756-148.576t-66.13-142.278-105.635-120.522-147.717-83.593-184.932-31.203q-155.16 0-283.983 83.019 20.040-2.29 44.659-2.29 128.823 0 229.591 79.011-60.118 1.145-107.639 36.929t-65.271 91.321q18.893-2.863 34.925-2.863 24.619 0 48.666 6.298-64.126 13.169-106.208 63.838t-42.082 117.659v2.29q38.933-21.756 83.593-23.475-37.788 25.193-60.118 65.842t-22.33 88.172q0 50.384 25.193 93.325 69.279-85.309 168.616-136.552t212.702-56.969q-4.579 21.756-4.579 42.368 0 76.721 54.106 130.827t130.827 54.106q80.156 0 135.121-58.4 62.408 12.024 117.373 44.659-21.185-65.842-81.301-101.913 53.247 5.726 106.494 28.627z" />
<glyph unicode="&#xf09a;" glyph-name="facebook" data-tags="facebook" horiz-adv-x="587" d="M549.072 927.092v-151.152h-89.89q-49.239 0-66.416-20.611t-17.177-61.834v-108.212h167.757l-22.33-169.474h-145.427v-434.562h-175.199v434.562h-145.999v169.474h145.999v124.815q0 106.494 59.545 165.179t158.596 58.685q84.164 0 130.54-6.871z" />
<glyph unicode="&#xf09b;" glyph-name="github" data-tags="github" d="M439.715 860.676q119.663 0 220.717-58.973t160.026-160.026 58.973-220.717q0-143.709-83.878-258.504t-216.709-158.881q-15.459-2.863-22.901 4.008t-7.443 17.177q0 1.718 0.286 43.8t0.286 77.007q0 55.537-29.772 81.301 32.635 3.435 58.685 10.306t53.82 22.33 46.376 38.074 30.346 60.118 11.736 86.168q0 68.133-45.231 117.944 21.185 52.102-4.579 116.799-16.032 5.153-46.376-6.298t-52.673-25.193l-21.756-13.74q-53.247 14.887-109.928 14.887t-109.928-14.887q-9.161 6.298-24.334 15.459t-47.808 22.044-48.666 7.73q-25.764-64.697-4.579-116.799-45.231-49.812-45.231-117.944 0-48.666 11.736-85.882t30.058-60.118 46.090-38.36 53.82-22.33 58.685-10.306q-22.33-20.611-28.054-58.973-12.024-5.726-25.764-8.587t-32.635-2.863-37.503 12.31-31.776 35.784q-10.879 18.322-27.768 29.772t-28.342 13.74l-11.451 1.718q-12.024 0-16.603-2.577t-2.863-6.583 5.153-8.016 7.443-6.871l4.008-2.863q12.595-5.726 24.905-21.756t18.036-29.2l5.726-13.169q7.443-21.756 25.193-35.211t38.36-17.177 39.792-4.008 31.776 2.004l13.169 2.29q0-21.756 0.286-50.669t0.286-31.203q0-10.306-7.443-17.177t-22.901-4.008q-132.831 44.086-216.709 158.881t-83.878 258.504q0 119.663 58.973 220.717t160.026 160.026 220.717 58.973zM166.612 229.157q1.718 4.008-4.008 6.871-5.726 1.718-7.443-1.145-1.718-4.008 4.008-6.871 5.153-3.435 7.443 1.145zM184.36 209.691q4.008 2.863-1.145 9.161-5.726 5.153-9.161 1.718-4.008-2.863 1.145-9.161 5.726-5.726 9.161-1.718zM201.537 183.927q5.153 4.008 0 10.879-4.579 7.443-9.733 3.435-5.153-2.863 0-10.306t9.733-4.008zM225.583 159.88q4.579 4.579-2.29 10.879-6.871 6.871-11.451 1.718-5.153-4.579 2.29-10.879 6.871-6.871 11.451-1.718zM258.218 145.566q1.718 6.298-7.443 9.161-8.587 2.29-10.879-4.008t7.443-8.587q8.587-3.435 10.879 3.435zM294.288 142.703q0 7.443-9.733 6.298-9.161 0-9.161-6.298 0-7.443 9.733-6.298 9.161 0 9.161 6.298zM327.497 148.428q-1.145 6.298-10.306 5.153-9.161-1.718-8.016-8.587t10.306-4.579 8.016 8.016z" />
<glyph unicode="&#xf09e;" glyph-name="rss" data-tags="rss" horiz-adv-x="806" d="M219.643 178.237q0-45.759-32.031-77.79t-77.79-32.031-77.79 32.031-32.031 77.79 32.031 77.79 77.79 32.031 77.79-32.031 32.031-77.79zM512.5 107.882q1.144-16.016-9.723-27.456-10.296-12.012-26.883-12.012h-77.218q-14.3 0-24.595 9.438t-11.44 23.737q-12.583 130.985-105.532 223.933t-223.933 105.532q-14.3 1.144-23.737 11.44t-9.438 24.595v77.218q0 16.587 12.012 26.883 9.723 9.723 24.595 9.723h2.86q91.518-7.436 175.028-46.045t148.145-103.815q65.207-64.634 103.815-148.145t46.045-175.028zM805.357 106.738q1.144-15.444-10.296-26.883-10.296-11.44-26.312-11.44h-81.794q-14.872 0-25.454 10.010t-11.154 24.31q-6.864 122.977-57.77 233.657t-132.415 192.188-192.188 132.415-233.657 58.343q-14.3 0.572-24.31 11.154t-10.010 24.881v81.794q0 16.016 11.44 26.312 10.296 10.296 25.168 10.296h1.716q149.86-7.436 286.851-68.638t243.381-168.164q106.961-106.39 168.164-243.381t68.638-286.851z" />
<glyph unicode="&#xf0d2;" glyph-name="pinterest" data-tags="pinterest" d="M879.431 420.961q0-119.663-58.973-220.717t-160.026-160.026-220.717-58.973q-63.553 0-124.815 18.322 33.78 53.247 44.659 93.898 5.153 19.467 30.917 120.807 11.451-22.33 41.796-38.647t65.271-16.318q69.279 0 123.671 39.219t84.164 107.924 29.772 154.588q0 65.271-34.066 122.526t-98.763 93.325-145.999 36.070q-60.118 0-112.219-16.603t-88.458-44.086-62.408-63.267-38.36-74.144-12.31-76.721q0-59.545 22.901-104.775t66.987-63.553q17.177-6.871 21.756 11.451 1.145 4.008 4.579 17.748t4.579 17.177q3.435 13.169-6.298 24.619-29.2 34.925-29.2 86.454 0 86.454 59.83 148.576t156.592 62.122q86.454 0 134.835-46.949t48.38-121.952q0-97.333-39.219-165.466t-100.482-68.133q-34.925 0-56.11 24.905t-13.169 59.83q4.579 20.040 15.173 53.533t17.177 58.973 6.583 43.227q0 28.627-15.459 47.521t-44.086 18.893q-35.499 0-60.118-32.635t-24.619-81.301q0-41.796 14.314-69.85l-56.681-239.324q-9.733-40.078-7.443-101.341-117.944 52.102-190.658 160.885t-72.713 242.187q0 119.663 58.973 220.717t160.026 160.026 220.717 58.973 220.717-58.973 160.026-160.026 58.973-220.717z" />
<glyph unicode="&#xf0d3;" glyph-name="pinterest_sign" data-tags="pinterest_sign" d="M714.538 860.676q68.133 0 116.514-48.38t48.38-116.514v-549.644q0-68.133-48.38-116.514t-116.514-48.38h-415.096q48.666 69.85 61.834 120.234 5.153 19.467 30.346 119.663 12.024-22.33 42.082-38.36t64.412-16.032q103.631 0 169.187 84.45t65.557 213.847q0 48.094-20.040 93.039t-55.251 79.585-87.313 55.537-112.791 20.897q-59.545 0-111.361-16.318t-87.6-43.8-61.549-62.693-38.074-73.286-12.31-75.862q0-58.4 22.615-103.059t66.701-62.98q7.443-2.863 13.455 0t8.302 10.879q5.726 25.193 8.587 34.925 3.435 13.169-6.298 24.046-28.627 35.499-28.627 85.882 0 85.882 59.259 146.857t154.873 60.976q85.309 0 133.117-46.376t47.808-120.234q0-96.188-38.647-163.749t-99.337-67.561q-34.354 0-55.537 24.905t-13.169 59.259q4.579 19.467 15.173 52.961t16.889 58.4 6.298 42.655q0 28.054-15.173 46.663t-43.227 18.607q-34.925 0-59.259-32.35t-24.334-79.87q0-41.223 13.74-69.279l-56.11-237.033q-13.74-57.255-4.008-145.427h-104.775q-68.133 0-116.514 48.38t-48.38 116.514v549.644q0 68.133 48.38 116.514t116.514 48.38h549.644z" />
<glyph unicode="&#xf0d4;" glyph-name="google_plus_sign" data-tags="google_plus_sign" d="M525.025 415.808q0 14.887-3.435 36.643h-207.261v-75.577h124.242q-1.718-13.74-9.447-28.627t-21.471-30.346-38.074-25.479-55.251-10.020q-56.681 0-96.759 40.651t-40.078 97.906 40.078 97.906 96.759 40.651q52.673 0 87.6-33.78l59.545 57.826q-61.834 57.255-147.145 57.255-91.607 0-155.733-64.412t-64.126-155.447 64.126-155.447 155.733-64.412q94.47 0 152.584 60.118t58.114 154.588zM722.554 389.47h62.408v62.98h-62.408v62.98h-62.98v-62.98h-62.98v-62.98h62.98v-62.98h62.98v62.98zM879.431 695.783v-549.644q0-68.133-48.38-116.514t-116.514-48.38h-549.644q-68.133 0-116.514 48.38t-48.38 116.514v549.644q0 68.133 48.38 116.514t116.514 48.38h549.644q68.133 0 116.514-48.38t48.38-116.514z" />
<glyph unicode="&#xf0d5;" glyph-name="google_plus" data-tags="google_plus" horiz-adv-x="1319" d="M822.749 411.227q0-119.089-49.812-212.128t-141.992-145.427-211.269-52.388q-85.309 0-163.175 33.207t-133.976 89.317-89.317 133.976-33.207 163.175 33.207 163.175 89.317 133.976 133.976 89.317 163.175 33.207q163.749 0 281.12-109.928l-113.936-109.357q-66.987 64.697-167.183 64.697-70.424 0-130.254-35.499t-94.756-96.474-34.925-133.117 34.925-133.117 94.756-96.474 130.254-35.499q47.521 0 87.313 13.169t65.557 32.921 44.945 44.945 28.054 47.521 12.31 42.368h-238.179v144.282h396.203q6.871-36.070 6.871-69.85zM1319.146 481.077v-120.234h-119.663v-119.663h-120.234v119.663h-119.663v120.234h119.663v119.663h120.234v-119.663h119.663z" />
<glyph unicode="&#xf0e1;" glyph-name="linkedin" data-tags="linkedin" d="M199.819 576.12v-567.394h-188.94v567.394h188.94zM211.843 751.319q0.573-41.796-28.913-69.85t-77.581-28.054h-1.145q-46.949 0-75.577 28.054t-28.627 69.85q0 42.368 29.487 70.136t77.007 27.768 76.148-27.768 29.2-70.136zM879.431 333.934v-325.206h-188.368v303.449q0 60.118-23.189 94.184t-72.428 34.066q-36.070 0-60.404-19.752t-36.357-48.953q-6.298-17.177-6.298-46.376v-316.618h-188.368q1.145 228.446 1.145 370.437t-0.573 169.474l-0.573 27.483h188.368v-82.447h-1.145q11.451 18.322 23.475 32.062t32.35 29.772 49.812 24.905 65.557 8.875q97.906 0 157.451-64.983t59.545-190.372z" />
<glyph unicode="&#xf136;" glyph-name="maxcdn" data-tags="maxcdn" d="M999.094 491.384l-93.898-436.853h-191.231l101.913 476.359q7.443 32.062-8.587 50.384-15.459 18.893-47.521 18.893h-96.759l-116.799-545.636h-191.231l116.799 545.636h-163.749l-116.799-545.636h-191.231l116.799 545.636-87.6 187.223h730.569q57.826 0 108.498-23.189t84.45-64.983q34.354-41.796 46.376-96.474t0-111.361z" />
<glyph unicode="&#xf143;" glyph-name="rss_square" data-tags="rss_square" d="M293.143 201.102q0 30.346-21.471 51.816t-51.816 21.471-51.816-21.471-21.471-51.816 21.471-51.816 51.816-21.471 51.816 21.471 21.471 51.816zM494.108 147.283q-7.443 133.403-101.055 227.014t-227.014 101.055q-8.016 0.573-13.74-5.153t-5.726-13.169v-73.286q0-7.443 4.867-12.595t12.31-5.726q88.172-6.298 151.152-69.279t69.279-151.152q0.573-7.443 5.726-12.31t12.595-4.867h73.286q7.443 0 13.169 5.726t5.153 13.74zM713.965 146.711q-2.863 88.172-32.062 170.332t-79.87 148.861-117.373 117.373-148.861 79.87-170.332 32.062q-8.016 0.573-13.169-5.153-5.726-5.726-5.726-13.169v-73.286q0-7.443 5.153-12.595t12.595-5.726q116.799-4.008 216.422-63.838t159.455-159.455 63.838-216.422q0.573-7.443 5.726-12.595t12.595-5.153h73.286q7.443 0 13.169 5.726 6.298 5.153 5.153 13.169zM879.431 695.783v-549.644q0-68.133-48.38-116.514t-116.514-48.38h-549.644q-68.133 0-116.514 48.38t-48.38 116.514v549.644q0 68.133 48.38 116.514t116.514 48.38h549.644q68.133 0 116.514-48.38t48.38-116.514z" />
<glyph unicode="&#xf166;" glyph-name="youtube_sign" data-tags="youtube_sign" d="M526.17 187.934v89.89q0 28.627-16.603 28.627-9.733 0-18.893-9.161v-128.25q9.161-9.161 18.893-9.161 16.603 0 16.603 28.054zM631.519 257.785h37.788v19.467q0 29.2-18.893 29.2t-18.893-29.2v-19.467zM304.594 410.082v-40.078h-45.804v-242.187h-42.368v242.187h-44.659v40.078h132.831zM419.676 337.942v-210.124h-38.36v22.901q-22.33-25.764-43.513-25.764-18.893 0-24.046 16.032-3.435 9.733-3.435 30.917v166.038h37.788v-154.588q0-13.74 0.573-14.887 0.573-8.587 8.587-8.587 11.451 0 24.046 17.748v160.313h38.36zM563.958 274.388v-83.593q0-29.772-4.008-41.796-6.871-24.046-30.346-24.046-20.040 0-38.933 23.475v-20.611h-38.36v282.265h38.36v-92.18q18.322 22.901 38.933 22.901 23.475 0 30.346-24.046 4.008-12.024 4.008-42.368zM707.667 200.53v-5.153q0-16.603-1.145-24.619-1.718-12.595-8.587-22.901-15.459-22.901-45.804-22.901-29.772 0-46.376 21.756-12.024 15.459-12.024 49.239v73.858q0 33.78 11.451 49.239 16.603 21.756 45.804 21.756t44.659-21.756q12.024-16.603 12.024-49.239v-43.513h-76.148v-37.215q0-29.2 19.467-29.2 13.74 0 17.177 14.887 0 0.573 0.286 4.008t0.286 9.447v12.31h38.933zM449.448 672.308v-89.317q0-29.2-18.322-29.2t-18.322 29.2v89.317q0 29.772 18.322 29.772t18.322-29.772zM754.616 264.083q0 101.341-10.879 148.861-5.726 25.193-24.619 42.082t-43.513 19.752q-77.866 8.587-235.889 8.587-157.451 0-235.317-8.587-25.193-2.863-43.8-19.752t-24.334-42.082q-11.451-49.812-11.451-148.861 0-100.767 11.451-148.861 5.726-24.619 24.334-41.796t43.227-20.040q78.44-8.587 235.889-8.587t235.889 8.587q24.619 2.863 43.227 20.040t24.334 41.796q11.451 48.094 11.451 148.861zM322.343 636.81l51.529 169.474h-42.941l-29.2-111.647-30.346 111.647h-44.659q4.008-13.169 13.169-39.507l13.74-39.507q20.040-58.973 26.338-90.462v-115.081h42.368v115.081zM487.809 590.434v74.432q0 33.207-12.024 49.812-16.603 21.756-44.659 21.756-29.2 0-44.659-21.756-12.024-16.603-12.024-49.812v-74.432q0-33.207 12.024-49.812 15.459-21.756 44.659-21.756 28.054 0 44.659 21.756 12.024 15.459 12.024 49.812zM591.441 521.728h38.36v211.843h-38.36v-162.030q-12.595-17.748-24.046-17.748-8.587 0-9.161 9.161-0.573 1.145-0.573 14.887v155.733h-38.36v-167.757q0-21.185 3.435-31.491 6.298-15.459 24.619-15.459 20.611 0 44.086 25.764v-22.901zM879.431 695.783v-549.644q0-68.133-48.38-116.514t-116.514-48.38h-549.644q-68.133 0-116.514 48.38t-48.38 116.514v549.644q0 68.133 48.38 116.514t116.514 48.38h549.644q68.133 0 116.514-48.38t48.38-116.514z" />
<glyph unicode="&#xf167;" glyph-name="youtube" data-tags="youtube" d="M555.942 221.714v-120.807q0-38.36-22.33-38.36-13.169 0-25.764 12.595v172.336q12.595 12.595 25.764 12.595 22.33 0 22.33-38.36zM749.463 221.141v-26.338h-51.529v26.338q0 38.933 25.764 38.933t25.764-38.933zM196.384 345.957h61.263v53.82h-178.634v-53.82h60.118v-325.779h57.255v325.779zM361.276 20.178h50.957v282.838h-50.957v-216.422q-17.177-24.046-32.635-24.046-10.306 0-12.024 12.024-0.573 1.718-0.573 20.040v208.407h-50.957v-223.866q0-28.054 4.579-41.796 6.871-21.185 33.207-21.185 27.483 0 58.4 34.925v-30.917zM606.899 104.914v112.791q0 41.796-5.153 56.681-9.733 32.062-40.651 32.062-28.627 0-53.247-30.917v124.242h-50.957v-379.598h50.957v27.483q25.764-31.491 53.247-31.491 30.917 0 40.651 31.491 5.153 15.459 5.153 57.255zM800.42 110.641v7.443h-52.102q0-29.2-1.145-34.925-4.008-20.611-22.901-20.611-26.338 0-26.338 39.507v49.812h102.486v58.973q0 45.231-15.459 66.416-22.33 29.2-60.689 29.2-38.933 0-61.263-29.2-16.032-21.185-16.032-66.416v-99.051q0-45.231 16.603-66.416 22.33-29.2 61.834-29.2 41.223 0 61.834 30.346 10.306 15.459 12.024 30.917 1.145 5.153 1.145 33.207zM452.312 633.375v120.234q0 39.507-24.619 39.507t-24.619-39.507v-120.234q0-40.078 24.619-40.078t24.619 40.078zM863.973 203.393q0-133.976-14.887-200.392-8.016-33.78-33.207-56.681t-58.4-26.338q-105.349-12.024-317.763-12.024t-317.763 12.024q-33.207 3.435-58.685 26.338t-32.921 56.681q-14.887 64.126-14.887 200.392 0 133.976 14.887 200.392 8.016 33.78 33.207 56.681t58.973 26.909q104.775 11.451 317.19 11.451t317.763-11.451q33.207-4.008 58.685-26.909t32.921-56.681q14.887-64.126 14.887-200.392zM292.571 933.962h58.4l-69.279-228.446v-155.16h-57.255v155.16q-8.016 42.368-34.925 121.38-21.185 58.973-37.215 107.066h60.689l40.651-150.58zM504.414 743.303v-100.196q0-46.376-16.032-67.561-21.756-29.2-60.689-29.2-38.36 0-60.118 29.2-16.032 21.756-16.032 67.561v100.196q0 45.804 16.032 66.987 21.756 29.2 60.118 29.2 38.933 0 60.689-29.2 16.032-21.185 16.032-66.987zM696.216 836.057v-285.701h-52.102v31.491q-30.346-35.499-58.973-35.499-26.338 0-33.78 21.185-4.579 13.74-4.579 42.941v225.583h52.102v-210.124q0-18.893 0.573-20.040 1.718-12.595 12.024-12.595 15.459 0 32.635 24.619v218.14h52.102z" />
<glyph unicode="&#xf16a;" glyph-name="youtube_play" data-tags="youtube_play" d="M407.081 288.13l277.112 143.137-277.112 144.853v-287.991zM513.001 781.665q96.188 0 185.791-2.577t131.399-5.439l41.796-2.29q0.573 0 9.733-0.859t13.169-1.718 13.455-2.577 16.318-4.579 16.032-7.443 17.748-11.165 16.603-15.173q3.435-3.435 8.875-10.591t16.603-33.495 15.173-57.826q4.579-36.643 7.157-78.152t3.149-64.983v-100.767q0.573-83.019-10.306-166.038-4.008-31.491-14.314-56.969t-18.322-35.211l-8.016-9.733q-8.016-8.587-16.603-15.173t-17.748-10.879-16.032-7.157-16.318-4.579-13.74-2.577-13.169-1.718-9.447-0.859q-143.709-10.879-358.987-10.879-118.518 1.145-205.831 3.722t-114.795 4.294l-28.054 2.29-20.611 2.29q-20.611 2.863-31.203 5.726t-29.2 12.024-32.35 23.475q-3.435 3.435-8.875 10.591t-16.603 33.495-15.173 57.826q-4.579 36.643-7.157 78.152t-3.149 64.983v100.767q-0.573 83.019 10.306 166.038 4.008 31.491 14.314 56.969t18.322 35.211l8.016 9.733q8.016 8.587 16.603 15.173t17.748 11.165 16.032 7.443 16.318 4.579 13.455 2.577 13.169 1.718 9.733 0.859q143.709 10.306 358.987 10.306z" />
<glyph unicode="&#xf16d;" glyph-name="instagram" data-tags="instagram" d="M586.288 420.961q0 60.689-42.941 103.631t-103.631 42.941-103.631-42.941-42.941-103.631 42.941-103.631 103.631-42.941 103.631 42.941 42.941 103.631zM665.299 420.961q0-93.898-65.842-159.741t-159.741-65.842-159.741 65.842-65.842 159.741 65.842 159.741 159.741 65.842 159.741-65.842 65.842-159.741zM727.133 655.705q0-21.756-15.459-37.215t-37.215-15.459-37.215 15.459-15.459 37.215 15.459 37.215 37.215 15.459 37.215-15.459 15.459-37.215zM439.715 781.665q-4.008 0-43.8 0.286t-60.404 0-55.251-1.718-58.973-5.726-40.937-10.591q-28.627-11.451-50.384-33.207t-33.207-50.384q-6.298-16.603-10.591-40.937t-5.726-58.973-1.718-55.251 0-60.404 0.286-43.8-0.286-43.8 0-60.404 1.718-55.251 5.726-58.973 10.591-40.937q11.451-28.627 33.207-50.384t50.384-33.207q16.603-6.298 40.937-10.591t58.973-5.726 55.251-1.718 60.404 0 43.8 0.286 43.8-0.286 60.404 0 55.251 1.718 58.973 5.726 40.937 10.591q28.627 11.451 50.384 33.207t33.207 50.384q6.298 16.603 10.591 40.937t5.726 58.973 1.718 55.251 0 60.404-0.286 43.8 0.286 43.8 0 60.404-1.718 55.251-5.726 58.973-10.591 40.937q-11.451 28.627-33.207 50.384t-50.384 33.207q-16.603 6.298-40.937 10.591t-58.973 5.726-55.251 1.718-60.404 0-43.8-0.286zM879.431 420.961q0-131.113-2.863-181.497-5.726-119.089-70.995-184.36t-184.36-70.995q-50.384-2.863-181.497-2.863t-181.497 2.863q-119.089 5.726-184.36 70.995t-70.995 184.36q-2.863 50.384-2.863 181.497t2.863 181.497q5.726 119.089 70.995 184.36t184.36 70.995q50.384 2.863 181.497 2.863t181.497-2.863q119.089-5.726 184.36-70.995t70.995-184.36q2.863-50.384 2.863-181.497z" />
<glyph unicode="&#xf173;" glyph-name="tumblr" data-tags="tumblr" horiz-adv-x="587" d="M540.484 173.047l45.804-135.694q-13.169-20.040-63.553-37.788t-101.341-18.322q-59.545-1.145-109.070 14.887t-81.589 42.368-54.392 60.689-31.776 68.705-9.447 67.561v311.465h-96.188v123.097q41.223 14.887 73.858 39.792t52.102 51.529 33.207 58.4 19.467 56.681 8.587 50.669q0.573 2.863 2.577 4.867t4.294 2.004h139.701v-242.76h190.658v-144.282h-191.231v-296.579q0-17.177 3.722-32.062t12.883-30.058 28.342-23.76 46.663-8.016q44.659 1.145 76.721 16.603z" />
<glyph unicode="&#xf174;" glyph-name="tumblr_sign" data-tags="tumblr_sign" d="M650.413 97.472l-35.499 104.775q-25.193-12.595-58.973-12.595-20.611-0.573-35.499 6.012t-22.044 18.036-10.020 23.189-2.863 24.905v227.874h147.145v111.073h-146.572v186.65h-107.639q-4.579 0-5.153-5.726-2.863-25.193-10.020-49.812t-22.33-54.392-44.086-54.392-67.846-38.933v-94.47h74.432v-239.324q0-32.635 12.31-65.842t37.215-63.553 69.279-48.953 101.055-17.463q39.507 0.573 78.152 14.314t48.953 28.627zM879.431 695.783v-549.644q0-68.133-48.38-116.514t-116.514-48.38h-549.644q-68.133 0-116.514 48.38t-48.38 116.514v549.644q0 68.133 48.38 116.514t116.514 48.38h549.644q68.133 0 116.514-48.38t48.38-116.514z" />
<glyph unicode="&#xf17e;" glyph-name="skype" data-tags="skype" d="M671.597 325.345q0 28.627-11.165 52.388t-27.768 39.219-41.796 28.054-47.235 19.467-50.098 13.169l-59.545 13.74q-17.177 4.008-25.193 6.012t-20.040 6.583-17.177 9.161-9.447 12.024-4.294 17.177q0 44.086 82.447 44.086 24.619 0 44.086-6.871t30.917-16.318 21.756-19.181 22.901-16.603 27.483-6.871q26.909 0 43.227 18.322t16.318 44.086q0 31.491-32.062 56.969t-81.301 38.647-104.204 13.169q-38.933 0-75.577-8.875t-68.42-26.909-50.957-49.812-19.181-73.573q0-34.925 10.879-60.976t32.062-43.227 45.804-27.768 58.973-18.607l83.593-20.611q51.529-12.595 64.126-20.611 18.322-11.451 18.322-34.354 0-22.33-22.901-36.929t-60.118-14.599q-29.2 0-52.388 9.161t-37.215 22.044-26.050 25.764-26.338 22.044-30.917 9.161q-28.627 0-43.227-17.177t-14.599-42.941q0-52.673 69.85-90.176t166.612-37.503q41.796 0 80.156 10.591t70.136 30.631 50.669 53.533 18.893 75.29zM879.431 201.102q0-91.035-64.412-155.447t-155.447-64.412q-74.432 0-133.976 45.804-44.086-9.161-85.882-9.161-81.874 0-156.592 31.776t-128.823 85.882-85.882 128.823-31.776 156.592q0 41.796 9.161 85.882-45.804 59.545-45.804 133.976 0 91.035 64.412 155.447t155.447 64.412q74.432 0 133.976-45.804 44.086 9.161 85.882 9.161 81.874 0 156.592-31.776t128.823-85.882 85.882-128.823 31.776-156.592q0-41.796-9.161-85.882 45.804-59.545 45.804-133.976z" />
<glyph unicode="&#xf180;" glyph-name="foursquare" data-tags="foursquare" horiz-adv-x="732" d="M571.988 698.745l21.164 110.965q2.86 13.156-5.148 22.879t-20.020 9.723h-407.255q-13.156 0-22.022-9.723t-8.866-21.164v-629.758q0-4.004 3.432-0.572l166.449 201.34q13.156 14.872 21.735 19.162t27.456 4.29h136.705q12.583 0 21.164 8.294t10.296 16.873q13.727 74.359 21.164 109.25 2.288 12.012-6.577 22.879t-20.877 10.868h-168.164q-16.587 0-27.456 10.868t-10.868 27.456v24.023q0 16.587 10.868 27.17t27.456 10.581h197.907q10.296 0 20.020 7.722t11.44 16.873zM701.828 825.726q-8.579-41.755-30.601-152.435t-39.753-200.196-20.020-99.24q-3.432-12.583-5.148-18.589t-8.008-18.589-14.014-18.875-22.022-12.012-33.175-5.72h-155.008q-7.436 0-12.583-5.72-4.575-5.148-243.667-282.562-12.583-14.3-33.462-16.302t-27.741 3.146q-31.46 12.583-31.46 56.055v806.502q0 31.46 21.735 58.628t68.638 27.17h507.925q54.339 0 72.642-30.316t5.72-90.946zM701.828 825.726l-90.374-451.87q2.288 9.723 20.020 99.24t39.753 200.196 30.601 152.435z" />
<glyph unicode="&#xf189;" glyph-name="vk" data-tags="vk" horiz-adv-x="1099" d="M1097.572 636.238q13.169-36.643-85.882-168.328-13.74-18.322-37.215-48.666-22.901-29.2-31.491-41.223t-17.463-28.342-6.871-24.046 7.443-19.752 18.607-24.619 32.635-30.346q2.29-1.145 2.863-2.29 80.729-75.003 109.357-126.533 1.718-2.863 3.722-7.157t4.008-15.173-0.286-19.467-14.314-15.744-33.78-7.157l-146.572-2.29q-13.74-2.863-32.062 2.863t-29.772 12.595l-11.451 6.871q-17.177 12.024-40.078 36.643t-39.219 44.372-34.925 33.207-32.35 8.875q-1.718-0.573-4.579-2.004t-9.733-8.302-12.31-16.889-9.733-29.772-3.722-44.372q0-8.587-2.004-15.744t-4.294-10.591l-2.29-2.863q-10.306-10.879-30.346-12.595h-65.842q-40.651-2.29-83.593 9.447t-75.29 30.346-58.973 37.788-40.364 32.921l-14.314 13.74q-5.726 5.726-15.744 17.177t-40.937 52.102-60.689 86.454-70.136 120.807-74.717 155.733q-3.435 9.161-3.435 15.459t1.718 9.161l2.29 3.435q8.587 10.879 32.635 10.879l156.877 1.145q6.871-1.145 13.169-3.722t9.161-4.867l2.863-1.718q9.161-6.298 13.74-18.322 11.451-28.627 26.338-59.259t23.475-46.663l9.161-16.603q16.603-34.354 32.062-59.545t27.768-39.219 23.76-22.044 19.467-8.016 15.459 2.863q1.145 0.573 2.863 2.863t6.871 12.595 7.73 26.909 5.439 46.376 0 71.569q-1.145 22.901-5.153 41.796t-8.016 26.338l-3.435 6.871q-14.314 19.467-48.666 24.619-7.443 1.145 2.863 13.74 9.161 10.879 21.756 17.177 30.346 14.887 136.839 13.74 46.949-0.573 77.293-7.443 11.451-2.863 19.181-7.73t11.736-13.74 6.012-18.322 2.004-26.050-0.573-31.491-1.431-40.364-0.859-47.235q0-6.298-0.573-24.046t-0.286-27.483 2.004-23.189 6.583-22.33 12.883-14.028q4.579-1.145 9.733-2.29t14.887 6.298 21.756 19.752 29.772 38.36 38.933 61.549q34.354 59.545 61.263 128.823 2.29 5.726 5.726 10.020t6.298 6.012l2.29 1.718 2.863 1.431t7.443 1.718 11.451 0.286l164.893 1.145q22.33 2.863 36.643-1.431t17.748-9.447z" />
<glyph unicode="&#xf194;" glyph-name="vimeo_square" data-tags="vimeo_square" d="M739.73 568.678q5.726 123.671-92.18 127.105-132.258 4.579-178.634-149.435 25.193 10.879 46.949 10.879 48.666 0 42.368-54.965-2.29-32.635-42.368-95.615t-60.118-62.98q-24.619 0-46.949 96.759-7.443 30.917-25.764 145.999-17.177 108.212-91.607 101.341-33.78-4.008-93.898-57.255l-92.752-82.447 29.772-38.36q43.513 29.772 49.812 29.772 32.635 0 61.263-102.486 8.587-31.491 25.764-94.184t25.764-94.184q38.933-102.486 93.898-102.486 89.89 0 219.285 168.328 125.96 162.030 129.395 254.21zM879.431 695.783v-549.644q0-68.133-48.38-116.514t-116.514-48.38h-549.644q-68.133 0-116.514 48.38t-48.38 116.514v549.644q0 68.133 48.38 116.514t116.514 48.38h549.644q68.133 0 116.514-48.38t48.38-116.514z" />
<glyph unicode="&#xf1a0;" glyph-name="google" data-tags="google" d="M439.715 483.94h415.096q6.871-38.36 6.871-73.286 0-124.242-52.102-221.862t-148.576-152.584-221.289-54.965q-89.89 0-171.191 34.639t-140.274 93.611-93.611 140.274-34.639 171.191 34.639 171.191 93.611 140.274 140.274 93.611 171.191 34.639q171.765 0 294.862-115.081l-119.663-115.081q-70.424 68.133-175.199 68.133-73.858 0-136.552-37.215t-99.337-101.055-36.643-139.415 36.643-139.415 99.337-101.055 136.552-37.215q49.812 0 91.607 13.74t68.705 34.354 46.949 46.949 29.487 49.812 12.883 44.659h-249.631v151.152z" />
<glyph unicode="&#xf1e6;" glyph-name="calendar-clock" data-tags="calendar-clock" horiz-adv-x="1365" d="M842.413 330.989h79.878v-150.172l129.934-75.088-39.942-69.231-169.876 97.986v196.5M1055.424 597.254h-745.534v-585.778h248.691c-22.897 48.459-35.681 102.776-35.681 159.757 0 206.085 166.682 372.767 372.767 372.767 56.981 0 111.298-12.778 159.757-35.681v88.929M309.889-95.032c-59.112 0-106.503 47.925-106.503 106.503v745.534c0 59.112 47.396 106.503 106.503 106.503h53.254v106.503h106.503v-106.503h426.021v106.503h106.503v-106.503h53.254c58.578 0 106.503-47.925 106.503-106.503v-324.842c66.032-67.1 106.503-159.223 106.503-260.936 0-206.085-166.682-372.767-372.767-372.767-101.713 0-193.841 40.471-260.936 106.503h-324.842M895.667 429.509c-142.717 0-258.276-115.559-258.276-258.276s115.559-258.276 258.276-258.276c142.717 0 258.276 115.559 258.276 258.276s-115.559 258.276-258.276 258.276z" />
<glyph unicode="&#xf1eb;" glyph-name="calendar-text" data-tags="calendar-text" horiz-adv-x="1365" d="M788.434 279.556h-370.222v-105.778h370.222M1052.879 15.111h-740.444v581.778h740.444M1052.879 861.333h-52.889v105.778h-105.778v-105.778h-423.111v105.778h-105.778v-105.778h-52.889c-58.707 0-105.778-47.6-105.778-105.778v-740.444c0-58.178 47.6-105.778 105.778-105.778h740.444c58.178 0 105.778 47.6 105.778 105.778v740.444c0 58.178-47.6 105.778-105.778 105.778M947.101 491.111h-528.889v-105.778h528.889v105.778z" />
<glyph unicode="&#xf1f0;" glyph-name="uniF1F0" data-tags="uniF1F0" horiz-adv-x="1317" d="M1128.571 394.286h-78.857q8 21.143 37.714 102.286l1.714 5.143q2.286 5.714 5.714 14.857t5.143 14.857l6.857-31.429zM303.429 431.429l-33.143 168.571q-6.286 30.857-42.857 30.857h-153.143l-1.143-7.429q177.714-45.143 230.286-192zM405.714 630.857l-92.571-250.286-9.714 50.857q-14.857 40-48.571 74t-74.857 50.571l77.143-291.429h100l149.143 366.286h-100.571zM485.143 264h94.857l59.429 366.857h-94.857zM924 621.714q-39.429 15.429-85.143 15.429-70.286 0-114.857-33.714t-45.143-87.429q-0.571-58.286 82.857-99.429 27.429-13.143 38.286-23.429t10.857-22.286q0-17.143-17.143-26.286t-39.429-9.143q-49.143 0-89.143 18.857l-12.571 6.286-13.143-82.286q42.286-19.429 105.714-19.429 74.286-0.571 119.143 33.714t46 91.429q0 60.571-80 99.429-28 14.286-40.571 24t-12.571 21.714q0 12.571 14 22t40.286 9.429q40 0.571 70.857-13.714l8.571-4.571zM1166.857 630.857h-73.143q-37.143 0-49.714-30.857l-140.571-336h99.429l20 54.857h121.143q2.857-12.571 11.429-54.857h88zM1316.571 813.714v-731.429q0-29.714-21.714-51.429t-51.429-21.714h-1170.286q-29.714 0-51.429 21.714t-21.714 51.429v731.429q0 29.714 21.714 51.429t51.429 21.714h1170.286q29.714 0 51.429-21.714t21.714-51.429z" />
<glyph unicode="&#xf1f1;" glyph-name="_466" data-tags="_466" horiz-adv-x="1317" d="M639.429 765.143q-73.143 48.571-160.571 48.571-58.857 0-112.857-23.143t-92.857-62-62-92.571-23.143-112.571q0-59.429 23.143-113.143t62-92.571 92.571-62 113.143-23.143q87.429 0 160.571 48.571-74.857 61.143-101.714 151.714t0.286 180.857 101.429 151.429zM658.286 751.429q-72-56.571-98.286-142.571t-0.286-171.714 98.571-142.286q72.571 56.571 98.571 142.286t-0.286 171.714-98.286 142.571zM677.143 765.143q74.286-61.143 101.429-151.714t0.286-181.143-101.714-151.143q73.143-48.571 160.571-48.571 59.429 0 113.143 23.143t92.571 62 62 92.571 23.143 113.143q0 58.857-23.143 112.571t-62 92.571-92.857 62-112.857 23.143q-87.429 0-160.571-48.571zM1100.571 352.571h4v1.714h-9.714v-1.714h4v-9.714h1.714v9.714zM1117.143 342.857h2.286v11.429h-2.857l-3.429-7.429-3.429 7.429h-2.857v-11.429h1.714v8.571l3.429-7.429h2.286l2.857 7.429v-8.571zM1112.571 91.429v-1.143h-2.857v1.714h2.857v-0.571zM1112.571 86.286h1.714l-2.286 2.857h1.143l0.571 0.571q0.571 0.571 0.571 1.714t-0.571 1.714l-0.571 0.571h-5.143v-7.429h1.714v2.857h0.571zM391.429 125.143q0 10.857 6.286 17.714t17.143 6.857q10.286 0 16.571-7.143t6.286-17.429q0-10.857-6.286-17.714t-16.571-6.857q-10.857 0-17.143 6.857t-6.286 17.714zM661.714 150.286q17.143 0 20-18.286h-40q2.857 18.286 20 18.286zM865.143 125.143q0 10.857 6.286 17.714t16.571 6.857 16.857-7.143 6.571-17.429q0-10.857-6.286-17.714t-17.143-6.857q-10.286 0-16.571 6.857t-6.286 17.714zM1020.571 125.143q0 10.286 6.571 17.429t16.857 7.143 16.857-7.143 6.571-17.429q0-10.857-6.571-17.714t-16.857-6.857-16.857 7.143-6.571 17.429zM1110.857 84q-1.143 0-2.286 0.571-0.571 0-1.714 1.143t-1.143 1.714q-0.571 1.143-0.571 2.286 0 1.714 0.571 2.286 0 1.143 1.143 2.286l0.571 0.571q1.143 0 1.143 0.571 1.143 0.571 2.286 0.571 1.714 0 2.286-0.571l2.286-1.143 1.143-2.286v-0.571q0.571-1.143 0.571-1.714l-0.571-0.571v-1.714t-0.571-0.571l-0.571-1.143q-1.143-1.143-2.286-1.143-0.571-0.571-2.286-0.571zM342.286 86.286h17.143v48.571q0 13.714-8.286 22t-22.571 8.857q-18.286 0-26.857-13.714-8 13.714-25.714 13.714-13.714 0-22.286-11.429v9.143h-17.143v-77.143h17.143v42.857q0 20.571 18.857 20.571 17.143 0 17.143-20.571v-42.857h16.571v42.857q0 20.571 18.857 20.571 17.143 0 17.143-20.571v-42.857zM437.143 86.286h16.571v77.143h-16.571v-9.143q-9.714 11.429-24.571 11.429-16.571 0-27.429-11.429t-10.857-29.143 10.857-29.143 27.429-11.429q16 0 24.571 11.429v-9.714zM538.857 109.714q0 19.429-26.857 22.857l-8 1.143q-13.143 2.286-13.143 8 0 8.571 14.286 8.571 13.143 0 24.571-6.286l6.857 13.714q-12.571 8-31.429 8-14.857 0-23.429-6.857t-8.571-18.286q0-18.857 26.857-22.286l7.429-1.143q13.714-2.286 13.714-8 0-9.714-17.714-9.714-14.286 0-25.714 8l-7.429-13.143q14.286-9.714 33.143-9.714 16.571 0 26 6.857t9.429 18.286zM613.143 90.286l-4.571 14.286q-7.429-4-14.857-4-10.857 0-10.857 12.571v34.857h27.429v15.429h-27.429v23.429h-17.143v-23.429h-16v-15.429h16v-34.857q0-28.571 26.857-28.571 12 0 20.571 5.714zM662.286 165.714q-16.571 0-27.429-11.429t-10.857-29.143q0-18.286 11.143-29.429t28.286-11.143q18.857 0 31.429 10.857l-8 12.571q-10.286-8.571-22.286-8.571-19.429 0-23.429 18.857h57.714v6.857q0 18.286-10.286 29.429t-26.286 11.143zM753.143 165.714q-13.143 0-20-11.429v9.143h-17.143v-77.143h17.143v43.429q0 20 16.571 20 5.714 0 10.286-2.286l5.143 16q-5.143 2.286-12 2.286zM770.286 125.143q0-17.714 11.143-29.143t30-11.429q16.571 0 27.429 9.143l-8 13.714q-10.286-7.429-20-6.857-10.286 0-16.857 6.857t-6.571 17.714 6.571 17.714 16.857 6.857q10.857 0 20-6.857l8 13.714q-11.429 9.143-27.429 9.143-18.857 0-30-11.429t-11.143-29.143zM910.286 86.286h17.143v77.143h-17.143v-9.143q-8.571 11.429-24 11.429-16.571 0-27.714-11.429t-11.143-29.143 11.143-29.143 27.714-11.429q16 0 24 11.429v-9.714zM986.286 165.714q-13.143 0-20-11.429v9.143h-16.571v-77.143h16.571v43.429q0 20 16.571 20 5.714 0 10.286-2.286l5.143 16q-4.571 2.286-12 2.286zM1066.286 86.286h16.571v108.571h-16.571v-40.571q-8.571 11.429-24.571 11.429t-27.143-11.714-11.143-28.857 11.143-28.857 27.143-11.714q16.571 0 24.571 11.429v-9.714zM1110.857 97.714l-1.143-0.571h-1.714q-1.143-0.571-2.286-1.714-1.714-0.571-1.714-2.286-0.571-1.143-0.571-3.429 0-1.714 0.571-2.857 0-1.143 1.714-2.286 1.143-1.143 2.286-1.714t2.857-0.571q2.286 0 3.429 0.571 0 0.571 1.143 1.143l1.143 0.571q0.571 0.571 1.714 2.286 0.571 1.143 0.571 2.857 0 2.286-0.571 3.429-0.571 0.571-1.714 2.286 0 0.571-1.143 1.143l-1.143 0.571q-0.571 0-1.714 0.286t-1.714 0.286zM1316.571 813.714v-731.429q0-29.714-21.714-51.429t-51.429-21.714h-1170.286q-29.714 0-51.429 21.714t-21.714 51.429v731.429q0 29.714 21.714 51.429t51.429 21.714h1170.286q29.714 0 51.429-21.714t21.714-51.429z" />
<glyph unicode="&#xf1f2;" glyph-name="_467" data-tags="_467" horiz-adv-x="1317" d="M178.857 516q0-29.143-20.571-48-16.571-14.857-50.857-14.857h-9.714v125.714h9.714q34.857 0 50.857-15.429 20.571-17.714 20.571-47.429zM1193.714 553.143q0-29.714-36.571-29.714h-10.857v57.714h11.429q36 0 36-28zM217.143 516q0 42.286-28.571 68.857t-73.714 26.571h-54.286v-190.286h54.286q42.286 0 68 21.714 34.286 29.143 34.286 73.143zM234.286 421.143h37.143v190.286h-37.143v-190.286zM417.143 478.857q0 22.857-11.714 35.429t-43.143 24q-16.571 5.714-22.571 10.857t-6 13.143q0 9.143 7.714 15.143t19.714 6q16.571 0 30.286-15.429l19.429 25.143q-23.429 21.143-56 21.143-25.143 0-42.286-15.714t-17.143-38.571q0-20 10.286-31.714t36.571-20.857q21.143-7.429 25.714-10.857 10.857-6.857 10.857-19.429 0-11.429-8-19.143t-20.571-7.714q-27.429 0-40.571 25.143l-24-22.857q25.143-36.571 65.714-36.571 29.143 0 47.429 17.429t18.286 45.429zM576 427.429v44q-21.143-21.143-44.571-21.143-28 0-46 18.571t-18 47.143q0 27.429 18 46.571t44.286 19.143q24.571 0 46.286-21.714v44q-22.857 11.429-45.714 11.429-42.286 0-71.714-28.857t-29.429-70.571 29.143-70.571 71.429-28.857q24 0 46.286 10.857zM1280 82.286v301.143q-37.143-22.857-82.571-48t-135.714-66.857-188.286-78.571-238.571-76.857-288-67.429h896.571q14.857 0 25.714 10.857t10.857 25.714zM793.714 514.857q0 42.857-30.286 73.143t-73.143 30.286-73.143-30.286-30.286-73.143 30.286-73.143 73.143-30.286 73.143 30.286 30.286 73.143zM880.571 416l82.286 195.429h-40.571l-51.429-128-50.857 128h-40.571l81.143-195.429h20zM979.429 421.143h105.143v32h-68v51.429h65.714v32h-65.714v42.286h68v32.571h-105.143v-190.286zM1202.857 421.143h45.714l-60 80q43.429 9.143 43.429 53.714 0 26.857-17.714 41.714t-49.714 14.857h-55.429v-190.286h37.143v76h5.143zM1316.571 810.286v-724.571q0-32-22-54.286t-53.429-22.286h-1165.714q-31.429 0-53.429 22.286t-22 54.286v724.571q0 32 22 54.286t53.429 22.286h1165.714q31.429 0 53.429-22.286t22-54.286z" />
<glyph unicode="&#xf1f3;" glyph-name="f1f3" data-tags="f1f3" horiz-adv-x="1317" d="M68 570.286h50.857l-25.714 61.714zM422.857 269.714l42.286 45.143-40 45.143h-93.143v-28h81.143v-31.429h-81.143v-30.857h90.857zM513.143 314.286l56.571-62.857v124zM677.714 341.143q0 18.857-22.857 18.857h-48v-39.429h47.429q23.429 0 23.429 20.571zM842.857 343.429q0 16.571-24 16.571h-46.857v-34.857h46.286q24.571 0 24.571 18.286zM684 609.714q0 16.571-24 16.571h-46.857v-34.286h46.286q24.571 0 24.571 17.714zM946.286 570.286h50.857l-25.143 61.714zM399.429 658.857v-154.857h-37.714v121.143l-53.714-121.143h-32.571l-53.714 121.143v-121.143h-75.429l-14.286 34.286h-77.143l-14.286-34.286h-40l66.286 154.857h54.857l62.857-146.857v146.857h60.571l48.571-105.143 44 105.143h61.714zM717.143 341.143q0-11.429-3.143-20t-8-14.286-12.857-9.429-14.857-5.714-18-2.571-18-0.571-18.571 0.286-16.857 0.286v-52h-72l-45.714 51.429-47.429-51.429h-146.286v154.857h148.571l45.714-50.857 46.857 50.857h118.286q62.286 0 62.286-50.857zM550.857 536v-32h-124v154.857h124v-32.571h-86.857v-28h84.571v-31.429h-84.571v-30.857h86.857zM1316.571 216.571v-130.857q0-31.429-22-54t-53.429-22.571h-1165.714q-31.429 0-53.429 22.571t-22 54v387.429h63.429l14.286 34.857h31.429l14.286-34.857h124.571v26.286l10.857-26.286h64.571l11.429 26.857v-26.857h309.143v56.571l5.714 0.571q5.714 0 5.714-8v-49.143h159.429v13.143q13.143-6.857 31.429-10.286t30-3.714 36 0.286 29.429 0.571l14.286 34.857h32l14.286-34.857h129.714v33.143l19.429-33.143h104v216h-102.857v-25.143l-14.286 25.143h-105.714v-25.143l-13.143 25.143h-142.286q-39.429 0-62.286-12.571v12.571h-98.286v-12.571q-13.714 12.571-41.714 12.571h-358.857l-24.571-55.429-24.571 55.429h-113.143v-25.143l-12.571 25.143h-96.571l-44.571-102.286v223.429q0 31.429 22 54t53.429 22.571h1165.714q31.429 0 53.429-22.571t22-54v-387.429h-68.571q-29.143 0-46.286-12.571v12.571h-101.143q-31.429 0-44.571-12.571v12.571h-180.571v-12.571q-17.714 12.571-49.714 12.571h-119.429v-12.571q-13.143 12.571-52 12.571h-133.714l-30.857-33.143-28.571 33.143h-199.429v-216h196l31.429 33.714 29.714-33.714h120.571v50.857h12q33.714 0 51.429 7.429v-58.286h99.429v56.571h4.571q4.571 0 5.714-1.143t1.143-5.714v-49.714h302.286q32.571 0 50.286 13.714v-13.714h96q34.286 0 54.286 9.714zM883.429 350.286q0-13.143-6.857-24.571t-19.429-16.571q14.286-5.143 19.429-14.857t5.143-26.286v-30.857h-37.143v25.714q0 18.857-6.857 24.857t-26.286 6h-39.429v-56.571h-37.143v154.857h88q27.429 0 44-8.571t16.571-33.143zM725.143 617.143q0-13.714-7.143-25.143t-19.143-16.571q14.857-5.143 19.714-14.571t4.857-26.571v-30.286h-37.143q0 5.143 0.286 15.143t0 14.286-1.714 10.571-4.857 9.143-10 4.857-16.857 2h-40v-56h-36.571v154.857l87.429-0.571q28 0 44.571-8.286t16.571-32.857zM1027.429 269.143v-32h-123.429v154.857h123.429v-32h-86.286v-28h84.571v-31.429h-84.571v-30.857zM784 658.857v-154.857h-37.714v154.857h37.714zM1180 286.286q0-49.143-58.286-49.143h-72v33.143h72q19.429 0 19.429 14.286 0 9.143-9.714 12t-23.714 2.857-28.286 2-24 12.857-9.714 31.429q0 22.286 14.857 34.286t37.714 12h74.286v-32.571h-68q-20.571 0-20.571-14.286 0-9.143 10-11.714t24-2.286 28-1.429 24-12.286 10-31.143zM1316.571 314.857v-57.714q-13.714-20-50.286-20h-71.429v33.143h71.429q18.857 0 18.857 14.286 0 7.429-7.143 10.857t-17.714 3.143-22.857 1.143-22.857 4.571-17.714 13.714-7.143 27.714q0 22.286 15.143 34.286t38 12h73.714v-32.571h-67.429q-20.571 0-20.571-14.286 0-11.429 16.571-12.571t39.143-2.857 32.286-14.857zM1222.286 658.286v-154.286h-52.571l-69.714 116v-116h-75.429l-14.857 34.286h-76.571l-14.286-34.286h-42.857q-73.714 0-73.714 76 0 78.857 76 78.857h36v-33.714q-4 0-16 0.571t-16.286 0.286-13.143-1.143-12.286-3.714-8.286-7.714-6.571-13.143-1.714-19.143q0-21.714 7.714-33.143t28.286-11.429h16.571l52.571 121.714h55.429l62.286-146.286v146.286h56.571l65.143-107.429v107.429h37.714z" />
<glyph unicode="&#xf1f4;" glyph-name="_469" data-tags="_469" horiz-adv-x="1317" d="M425.714 442.286q0-21.143-14.571-35.143t-35.714-14q-16.571 0-26.571 9.143t-10 25.143q0 21.143 14.286 35.714t35.429 14.571q16 0 26.571-9.429t10.571-26zM874.286 527.429q0-24-12.571-32.571t-37.714-8.571l-18.286-0.571 9.714 61.143q1.143 6.286 7.429 6.286h10.286q12.571 0 20-1.143t14.286-7.143 6.857-17.429zM1074.857 442.286q0-20.571-14.571-34.857t-35.143-14.286q-16.571 0-26.857 9.143t-10.286 25.143q0 21.143 14.286 35.714t35.429 14.571q16 0 26.571-9.429t10.571-26zM293.143 540q0 33.714-22 48.857t-57.429 15.143h-91.429q-10.857 0-12-10.857l-37.143-233.143q-0.571-3.429 1.714-6.286t5.714-2.857h43.429q11.429 0 12.571 10.857l10.286 62.857q0.571 4.571 4 7.429t8.571 3.714 9.714 0.857 10.857-0.571 8-0.571q49.143 0 77.143 27.714t28 76.857zM469.714 361.714l23.429 149.143q0.571 3.429-1.714 6.286t-5.714 2.857h-43.429q-8 0-9.714-18.857-15.429 22.857-54.286 22.857-41.143 0-70-30.857t-28.857-72.571q0-33.714 19.714-53.714t52.857-20q16 0 33.143 6.857t27.429 18.286q-2.286-6.857-2.286-12 0-9.143 7.429-9.143h39.429q10.857 0 12.571 10.857zM725.143 512q0 2.857-2.286 5.429t-5.143 2.571h-44q-6.286 0-10.286-5.714l-60.571-89.143-25.143 85.714q-2.857 9.143-12.571 9.143h-42.857q-2.857 0-5.143-2.571t-2.286-5.429q0-1.143 11.143-33.714t24-70.286 13.429-40q-46.857-64-46.857-68.571 0-7.429 7.429-7.429h44q6.286 0 10.286 5.714l145.714 210.286q1.143 1.143 1.143 4zM942.286 540q0 33.714-22 48.857t-57.429 15.143h-90.857q-11.429 0-12.571-10.857l-37.143-233.143q-0.571-3.429 1.714-6.286t5.714-2.857h46.857q6.857 0 9.143 7.429l10.286 66.286q0.571 4.571 4 7.429t8.571 3.714 9.714 0.857 10.857-0.571 8-0.571q49.143 0 77.143 27.714t28 76.857zM1118.857 361.714l23.429 149.143q0.571 3.429-1.714 6.286t-5.714 2.857h-43.429q-8 0-9.714-18.857-14.857 22.857-54.286 22.857-41.143 0-70-30.857t-28.857-72.571q0-33.714 19.714-53.714t52.857-20q16.571 0 33.714 6.857t26.857 18.286q0-0.571-1.143-5.143t-1.143-6.857q0-9.143 7.429-9.143h39.429q10.857 0 12.571 10.857zM1243.429 595.429v0.571q0 8-7.429 8h-42.286q-6.286 0-7.429-6.286l-37.143-237.714-0.571-1.143q0-2.857 2.286-5.429t5.714-2.571h37.714q10.857 0 12 10.857zM224 518.857q-2.857-20-14.857-26.286t-34.286-6.286l-18.857-0.571 9.714 61.143q1.143 6.286 7.429 6.286h10.857q22.857 0 33.143-6.571t6.857-27.714zM1316.571 813.714v-731.429q0-29.714-21.714-51.429t-51.429-21.714h-1170.286q-29.714 0-51.429 21.714t-21.714 51.429v731.429q0 29.714 21.714 51.429t51.429 21.714h1170.286q29.714 0 51.429-21.714t21.714-51.429z" />
<glyph unicode="&#xf1f5;" glyph-name="_470" data-tags="_470" horiz-adv-x="1317" d="M912.571 444q0-39.429-12-60.571-10.857-20-29.714-20-13.143 0-23.429 5.143v128q16.571 17.143 32.571 17.143 32.571 0 32.571-69.714zM1162.857 464.571h-62.857q3.429 56 32 56 29.143 0 30.857-56zM272 387.429q0 33.714-18.857 52.286t-57.714 32.857q-20.571 7.429-29.714 13.714t-9.143 14.286q0 14.857 21.714 14.857 33.143 0 70.857-18.857l10.286 64q-38.286 18.286-85.143 18.286-44 0-70.286-21.714-27.429-22.286-27.429-62.286 0-33.143 18.571-51.714t56.857-32.286q22.286-8 31.143-14.571t8.857-15.714q0-17.714-27.429-17.714-16.571 0-40 7.143t-41.143 17.429l-10.286-64.571q41.143-23.429 96-23.429 46.286 0 73.714 21.143 29.143 23.429 29.143 66.857zM440.571 510.286l10.857 63.429h-54.857v77.143l-73.714-12-10.286-65.143-26.286-4.571-9.714-58.857h35.429v-125.143q0-48 25.143-68.571 21.714-17.143 63.429-17.143 18.286 0 45.143 6.286v67.429q-18.286-4-25.143-4-24 0-24 28.571v112.571h44zM621.143 496v79.429q-8.571 1.714-16 1.714-18.286 0-31.714-9.143t-19.143-26.286l-5.714 32h-74.857v-269.143h85.714v174.857q14.857 17.714 46.857 17.714 9.143 0 14.857-1.143zM642.286 304.571h85.714v269.143h-85.714v-269.143zM997.714 446.857q0 69.714-25.714 102.286-22.857 29.714-63.429 29.714-36.571 0-66.857-32l-4.571 26.857h-75.429v-368.571l85.714 14.286v86.286q20.571-6.286 38.857-6.286 47.429 0 76.571 32 34.857 37.143 34.857 115.429zM730.286 645.714q0 18.857-13.143 32t-32 13.143-32-13.143-13.143-32 13.143-32.286 32-13.429 32 13.429 13.143 32.286zM1243.429 441.714q0 64.571-27.429 100.571-28.571 36.571-82.286 36.571-54.857 0-86.571-37.714t-31.714-102.857q0-73.143 36-107.429 31.429-31.429 92-31.429 57.714 0 91.429 22.857l-9.143 58.857q-32.571-17.714-73.143-17.714-24.571 0-36 10.857-13.143 10.857-16 37.714h141.714q1.143 8 1.143 29.714zM1316.571 813.714v-731.429q0-29.714-21.714-51.429t-51.429-21.714h-1170.286q-29.714 0-51.429 21.714t-21.714 51.429v731.429q0 29.714 21.714 51.429t51.429 21.714h1170.286q29.714 0 51.429-21.714t21.714-51.429z" />
<glyph unicode="&#xf230;" glyph-name="facebook_square" data-tags="facebook_square" d="M830.765 860.676q20.040 0 34.354-14.314t14.314-34.354v-782.098q0-20.040-14.314-34.354t-34.354-14.314h-223.866v340.665h113.936l17.177 132.831h-131.113v84.737q0 32.062 13.455 48.094t52.388 16.032l69.85 0.573v118.518q-36.070 5.153-101.913 5.153-77.866 0-124.529-45.804t-46.663-129.395v-97.906h-114.51v-132.831h114.51v-340.665h-420.822q-20.040 0-34.354 14.314t-14.314 34.354v782.098q0 20.040 14.314 34.354t34.354 14.314h782.098z" />
<glyph unicode="&#xf263;" glyph-name="ok" data-tags="ok" horiz-adv-x="733" d="M366.429 414.662q-107.639 0-183.787 76.148t-76.148 183.215q0 107.639 76.148 183.787t183.787 76.148 183.787-76.148 76.148-183.787q0-107.066-76.148-183.215t-183.787-76.148zM366.429 802.276q-52.673 0-90.176-37.503t-37.503-90.749q0-52.673 37.503-90.176t90.176-37.503 90.176 37.503 37.503 90.176q0 53.247-37.503 90.749t-90.176 37.503zM665.871 383.173q7.443-15.459 8.587-28.342t-2.577-23.189-15.173-22.044-24.334-21.185-35.211-23.76q-65.842-41.796-180.352-53.82l41.796-41.223 152.869-152.869q17.177-17.748 17.177-42.368t-17.177-41.796l-6.871-7.443q-17.748-17.177-42.368-17.177t-42.368 17.177q-38.36 38.933-152.869 153.443l-152.869-153.443q-17.748-17.177-42.368-17.177t-41.796 17.177l-6.871 7.443q-17.748 17.177-17.748 41.796t17.748 42.368l194.093 194.093q-116.227 12.024-181.497 53.82-22.33 14.314-35.211 23.76t-24.334 21.185-15.173 22.044-2.577 23.189 8.587 28.342q5.726 11.451 16.032 20.040t24.046 12.595 32.062-1.145 37.215-20.040q2.863-2.29 8.587-6.298t24.619-14.028 39.507-17.463 52.673-13.74 64.697-6.298q52.102 0 99.623 14.599t68.705 28.913l21.756 14.314q18.893 14.887 37.215 20.040t32.062 1.145 24.046-12.595 16.032-20.040z" />
<glyph unicode="&#xf264;" glyph-name="ok_square" data-tags="ok_square" d="M530.75 601.884q0-37.788-26.623-64.412t-64.412-26.623-64.412 26.623-26.623 64.412 26.623 64.412 64.412 26.623 64.412-26.623 26.623-64.412zM653.275 394.051q-5.726 11.451-16.032 18.322t-27.197 5.439-34.639-15.744q-5.726-4.579-16.603-11.451t-46.376-18.322-72.713-11.451-70.995 10.306-49.239 20.611l-15.459 10.306q-17.748 14.314-34.639 15.744t-27.197-5.439-16.032-18.322q-12.595-25.764-1.145-42.655t49.812-42.082q47.521-30.346 129.395-38.36l-29.2-29.772q-81.301-81.301-109.357-108.783-12.595-12.595-12.595-30.058t12.595-30.058l5.153-5.153q12.595-12.595 30.058-12.595t30.058 12.595l109.357 109.357q65.271-65.842 109.357-109.357 12.595-12.595 30.058-12.595t30.058 12.595l5.153 5.153q12.595 12.595 12.595 30.058t-12.595 30.058l-109.357 108.783-29.772 29.772q80.729 8.016 128.823 38.36 38.36 25.193 49.812 42.082t-1.145 42.655zM625.221 601.884q0 76.721-54.392 131.113t-131.113 54.392-131.113-54.392-54.392-131.113 54.392-131.113 131.113-54.392 131.113 54.392 54.392 131.113zM879.431 695.783v-549.644q0-68.133-48.38-116.514t-116.514-48.38h-549.644q-68.133 0-116.514 48.38t-48.38 116.514v549.644q0 68.133 48.38 116.514t116.514 48.38h549.644q68.133 0 116.514-48.38t48.38-116.514z" />
<glyph unicode="&#xf27d;" glyph-name="vimeo" data-tags="vimeo" d="M978.482 637.383q-5.726-135.121-190.085-372.728-190.658-246.768-321.771-246.768-81.301 0-137.411 150.58-25.193 91.607-75.577 275.967-41.223 150.006-89.89 150.006-10.306 0-72.713-43.513l-44.086 56.11q13.74 12.024 61.834 55.251t74.432 66.13q89.317 79.011 137.984 83.593 54.392 5.153 87.6-31.776t46.376-116.514q25.193-164.32 37.788-213.56 31.491-142.564 68.705-142.564 29.2 0 88.172 92.18 57.826 92.18 62.408 140.846 7.443 79.585-62.408 79.585-32.635 0-69.279-14.887 68.705 225.011 262.799 218.713 143.709-4.579 135.121-186.65z" />
<glyph unicode="&#xf2b3;" glyph-name="google_plus_square" data-tags="google_plus_square" d="M525.025 415.808q0 18.893-3.435 36.643h-207.261v-75.577h124.242q-6.871-43.513-42.655-68.991t-81.589-25.479q-56.681 0-96.759 40.937t-40.078 97.619 40.078 97.619 96.759 40.937q53.247 0 87.6-33.78l59.545 57.826q-61.834 57.255-147.145 57.255-91.607 0-155.733-64.412t-64.126-155.447 64.126-155.447 155.733-64.412q94.47 0 152.584 60.118t58.114 154.588zM722.554 389.47h62.408v62.98h-62.408v62.98h-62.98v-62.98h-62.98v-62.98h62.98v-62.98h62.98v62.98zM879.431 420.961q0-119.663-58.973-220.717t-160.026-160.026-220.717-58.973-220.717 58.973-160.026 160.026-58.973 220.717 58.973 220.717 160.026 160.026 220.717 58.973 220.717-58.973 160.026-160.026 58.973-220.717z" />
<glyph unicode="&#xf2c6;" glyph-name="telegram" data-tags="telegram" d="M680.758 185.644l84.164 396.774q5.153 25.193-6.012 36.070t-29.487 4.008l-494.68-190.658q-16.603-6.298-22.615-14.314t-1.431-15.173 18.322-11.165l126.533-39.507 293.717 184.932q12.024 8.016 18.322 3.435 4.008-2.863-2.29-8.587l-237.607-214.705-9.161-130.54q13.169 0 25.764 12.595l61.834 59.545 128.25-94.47q36.643-20.611 46.376 21.756zM1026.003 420.961q0-104.204-40.651-199.246t-109.357-163.749-163.749-109.357-199.246-40.651-199.246 40.651-163.749 109.357-109.357 163.749-40.651 199.246 40.651 199.246 109.357 163.749 163.749 109.357 199.246 40.651 199.246-40.651 163.749-109.357 109.357-163.749 40.651-199.246z" />
</font>
</defs>
</svg>
